<svg id="svg" version="1.1" xmlns="http://www.w3.org/2000/svg" xmlns:xlink="http://www.w3.org/1999/xlink" width="400" height="400" viewBox="0, 0, 400,400"><g id="svgg"><path id="path0" d="M191.800 101.996 C 190.700 102.181,188.540 102.786,187.000 103.342 C 183.829 104.485,179.984 105.193,176.920 105.197 C 173.800 105.202,170.725 105.968,169.600 107.022 C 168.280 108.257,165.959 109.200,164.239 109.200 C 162.361 109.200,161.176 109.701,159.561 111.179 C 158.304 112.329,157.197 112.794,154.295 113.391 C 153.688 113.515,152.698 114.172,152.095 114.849 C 150.784 116.324,149.500 117.032,147.441 117.419 C 146.293 117.634,145.717 118.033,145.137 119.017 C 144.674 119.802,143.748 120.574,142.828 120.942 C 141.983 121.280,140.930 122.018,140.486 122.581 C 140.043 123.145,138.627 124.381,137.340 125.328 C 134.327 127.546,127.546 134.327,125.328 137.340 C 124.381 138.627,123.145 140.043,122.581 140.486 C 122.018 140.930,121.280 141.983,120.942 142.828 C 120.574 143.748,119.802 144.674,119.017 145.137 C 118.033 145.717,117.634 146.293,117.419 147.441 C 117.032 149.500,116.324 150.784,114.849 152.095 C 114.172 152.698,113.515 153.688,113.391 154.295 C 112.794 157.197,112.329 158.304,111.179 159.561 C 109.701 161.176,109.200 162.361,109.200 164.239 C 109.200 165.962,108.255 168.283,107.018 169.600 C 105.933 170.754,105.364 173.343,105.037 178.600 C 104.809 182.276,103.679 187.113,102.529 189.338 C 101.749 190.845,101.289 204.018,101.925 206.600 L 102.320 208.200 102.360 206.759 C 102.413 204.856,103.852 202.790,105.814 201.800 C 107.354 201.023,108.310 200.997,139.083 200.891 L 170.767 200.781 172.008 201.891 C 172.901 202.688,173.313 203.478,173.477 204.700 C 173.899 207.845,174.294 206.436,174.487 201.100 C 174.696 195.305,175.198 193.493,177.173 191.400 C 177.796 190.740,178.513 189.547,178.767 188.749 C 179.222 187.322,183.861 182.400,184.752 182.400 C 184.984 182.400,186.069 181.604,187.164 180.632 C 188.892 179.097,189.463 178.831,191.478 178.619 C 192.755 178.485,194.775 178.201,195.967 177.988 C 198.717 177.496,201.283 177.496,204.033 177.988 C 205.225 178.201,207.240 178.485,208.512 178.618 C 210.544 178.831,211.050 179.075,212.697 180.630 C 213.727 181.604,214.826 182.400,215.137 182.400 C 216.002 182.400,221.063 187.798,221.379 189.057 C 221.532 189.667,222.262 190.836,223.002 191.655 C 224.826 193.674,225.252 195.326,225.491 201.300 C 225.697 206.460,226.106 207.808,226.523 204.700 C 226.687 203.478,227.099 202.688,227.992 201.891 L 229.233 200.781 260.917 200.891 C 298.102 201.019,296.084 200.741,297.419 205.922 L 297.902 207.800 298.207 205.013 C 298.822 199.392,298.208 191.815,296.800 187.639 C 296.076 185.492,295.367 182.317,295.147 180.239 C 294.286 172.106,294.103 171.211,293.015 169.784 C 291.602 167.931,290.800 165.924,290.800 164.239 C 290.800 162.346,290.288 161.149,288.871 159.732 C 287.776 158.637,287.234 157.334,286.609 154.295 C 286.485 153.688,285.821 152.698,285.136 152.095 C 283.784 150.907,282.423 148.325,282.409 146.923 C 282.403 146.376,281.944 145.776,281.192 145.331 C 280.527 144.939,279.606 143.839,279.146 142.888 C 278.685 141.937,277.866 140.868,277.325 140.514 C 276.784 140.159,275.642 138.864,274.788 137.635 C 272.399 134.196,264.632 126.520,261.389 124.393 C 260.878 124.057,260.065 123.282,259.583 122.670 C 259.102 122.057,258.017 121.280,257.172 120.942 C 256.230 120.565,255.325 119.801,254.832 118.964 C 254.294 118.053,253.724 117.597,253.113 117.591 C 251.679 117.577,249.105 116.230,247.905 114.864 C 247.302 114.179,246.312 113.515,245.705 113.391 C 242.666 112.766,241.363 112.224,240.268 111.129 C 238.851 109.712,237.654 109.200,235.761 109.200 C 234.136 109.200,231.748 108.277,230.605 107.208 C 229.287 105.973,227.658 105.558,222.627 105.173 C 217.824 104.806,213.002 103.740,210.663 102.528 C 209.214 101.777,195.419 101.388,191.800 101.996 M293.880 217.336 C 293.463 218.422,293.066 226.211,293.366 227.409 C 293.914 229.589,294.502 227.688,294.690 223.128 C 294.871 218.751,294.461 215.821,293.880 217.336 M105.376 218.590 C 105.003 220.578,105.371 227.261,105.906 228.218 C 106.608 229.473,106.948 226.490,106.630 221.851 C 106.331 217.484,105.828 216.176,105.376 218.590 M109.473 232.660 C 109.051 233.083,109.151 237.018,109.615 238.239 C 110.317 240.087,110.918 238.790,110.730 235.833 C 110.570 233.330,110.069 232.064,109.473 232.660 M289.599 233.402 C 289.096 234.727,289.077 238.677,289.572 238.983 C 290.191 239.365,290.505 238.429,290.707 235.600 C 290.915 232.689,290.320 231.507,289.599 233.402 M113.473 241.460 C 112.992 241.941,113.181 245.821,113.721 246.560 C 114.679 247.870,115.192 246.540,114.709 244.000 C 114.271 241.699,113.932 241.001,113.473 241.460 M285.966 241.276 C 285.202 244.097,284.996 246.116,285.416 246.690 C 286.128 247.663,286.800 246.187,286.800 243.650 C 286.800 242.129,286.199 240.418,285.966 241.276 M117.059 249.504 C 116.671 250.132,117.859 254.200,118.430 254.200 C 118.994 254.200,119.062 251.687,118.548 249.900 C 118.344 249.193,117.406 248.943,117.059 249.504 M281.421 250.500 C 280.949 253.348,280.987 254.200,281.589 254.200 C 281.963 254.200,282.278 253.618,282.453 252.600 C 282.605 251.720,282.766 250.820,282.812 250.600 C 282.994 249.724,282.771 249.200,282.218 249.200 C 281.873 249.200,281.549 249.728,281.421 250.500 M121.447 256.955 C 121.137 258.192,121.393 258.800,122.224 258.800 C 122.950 258.800,122.970 257.585,122.259 256.613 C 121.750 255.917,121.703 255.937,121.447 256.955 M277.298 257.087 C 276.889 257.967,276.896 258.267,277.332 258.704 C 278.106 259.477,278.974 258.347,278.637 257.005 C 278.313 255.714,277.925 255.737,277.298 257.087 M125.260 261.328 C 124.889 261.775,124.949 262.096,125.542 262.828 L 126.296 263.759 126.589 262.835 C 126.981 261.600,125.978 260.463,125.260 261.328 M273.334 261.827 C 273.046 262.579,273.754 263.400,274.365 263.022 C 275.024 262.614,274.887 261.200,274.187 261.200 C 273.851 261.200,273.467 261.482,273.334 261.827 M129.010 265.584 C 128.763 265.984,129.599 267.600,130.053 267.600 C 130.583 267.600,130.799 266.281,130.358 265.749 C 129.824 265.106,129.342 265.047,129.010 265.584 M269.642 265.749 C 269.201 266.281,269.417 267.600,269.947 267.600 C 270.090 267.600,270.437 267.233,270.717 266.784 C 271.525 265.491,270.597 264.599,269.642 265.749 M132.802 269.590 C 132.289 269.915,132.317 270.054,133.002 270.571 C 134.297 271.550,135.353 270.948,134.385 269.782 C 133.822 269.104,133.612 269.078,132.802 269.590 M265.615 269.782 C 264.647 270.948,265.703 271.550,266.998 270.571 C 267.683 270.054,267.711 269.915,267.198 269.590 C 266.388 269.078,266.178 269.104,265.615 269.782 M136.859 273.555 C 136.435 273.824,136.515 274.035,137.232 274.537 C 138.344 275.316,139.542 274.695,138.756 273.747 C 138.237 273.122,137.638 273.061,136.859 273.555 M261.480 273.453 C 260.851 274.083,261.224 274.852,262.100 274.728 C 262.595 274.658,263.000 274.332,263.000 274.005 C 263.000 273.370,261.947 272.987,261.480 273.453 M256.845 277.552 L 255.891 278.286 256.984 278.560 C 258.353 278.904,259.434 278.164,258.756 277.347 C 258.174 276.646,257.999 276.665,256.845 277.552 M141.200 277.776 C 141.200 278.607,141.808 278.863,143.045 278.553 C 144.063 278.297,144.083 278.250,143.387 277.741 C 142.415 277.030,141.200 277.050,141.200 277.776 M145.784 281.226 C 145.263 282.070,145.896 282.333,149.785 282.888 C 150.960 283.056,151.095 281.678,149.927 281.440 C 147.595 280.966,145.996 280.884,145.784 281.226 M252.200 281.073 C 249.902 281.354,249.200 281.619,249.200 282.208 C 249.200 282.770,249.720 282.995,250.600 282.812 C 250.820 282.766,251.720 282.605,252.600 282.453 C 255.145 282.015,254.781 280.758,252.200 281.073 M153.231 285.363 C 152.499 286.245,154.000 286.865,156.512 286.720 C 159.051 286.574,159.237 285.931,156.858 285.525 C 155.901 285.361,154.801 285.127,154.415 285.005 C 154.029 284.882,153.496 285.043,153.231 285.363 M243.680 285.345 C 241.019 285.916,240.974 286.563,243.583 286.720 C 245.994 286.866,247.492 286.234,246.777 285.372 C 246.516 285.057,246.189 284.820,246.051 284.845 C 245.913 284.870,244.846 285.095,243.680 285.345 M161.017 289.572 C 160.635 290.191,161.571 290.505,164.400 290.707 C 167.311 290.915,168.493 290.320,166.598 289.599 C 165.273 289.096,161.323 289.077,161.017 289.572 M233.277 289.485 C 231.599 289.806,232.614 290.597,234.859 290.718 C 237.217 290.844,239.404 290.254,239.000 289.601 C 238.758 289.209,235.109 289.135,233.277 289.485 M172.057 293.524 C 171.099 294.188,172.304 294.517,176.427 294.716 C 180.813 294.927,183.803 294.570,182.721 293.964 C 181.787 293.441,172.716 293.067,172.057 293.524 M219.325 293.565 C 214.503 294.152,217.640 295.001,223.573 294.716 C 227.650 294.519,228.928 294.180,227.943 293.556 C 227.337 293.172,222.511 293.177,219.325 293.565 M194.200 297.565 L 192.600 297.817 194.200 298.104 C 196.159 298.456,204.550 298.407,206.200 298.034 C 209.129 297.373,198.151 296.944,194.200 297.565 " stroke="none" fill="#c44251" fill-rule="evenodd"></path><path id="path1" d="M167.052 50.282 C 166.902 50.431,166.385 50.614,165.903 50.688 C 164.530 50.897,163.236 51.917,162.963 53.005 L 162.713 54.000 157.423 54.000 C 154.514 54.000,151.998 54.135,151.833 54.300 C 151.668 54.465,151.323 54.600,151.067 54.600 C 150.810 54.600,150.580 54.780,150.556 55.000 C 150.532 55.220,150.374 55.985,150.206 56.700 L 149.900 58.000 146.850 58.051 C 145.172 58.078,143.440 58.141,143.000 58.190 C 142.560 58.239,141.628 58.306,140.929 58.340 C 139.323 58.416,138.400 59.324,138.400 60.829 C 138.400 61.986,136.928 62.397,134.100 62.030 C 133.825 61.994,133.600 62.128,133.600 62.327 C 133.600 62.526,133.149 62.603,132.598 62.497 C 131.262 62.242,130.448 62.989,130.489 64.432 C 130.533 65.985,130.677 65.916,126.825 66.181 C 124.978 66.309,123.227 66.612,122.933 66.855 C 122.259 67.415,122.235 68.415,122.900 68.253 C 123.175 68.186,123.264 68.207,123.098 68.300 C 122.931 68.392,122.914 68.661,123.059 68.896 C 123.228 69.168,123.131 69.205,122.794 68.996 C 122.409 68.758,122.334 68.851,122.519 69.334 C 122.754 69.946,121.088 70.326,119.458 70.033 C 118.905 69.934,118.000 70.847,118.000 71.503 C 118.000 72.674,116.059 73.998,114.279 74.040 C 111.250 74.112,110.655 74.451,110.286 76.316 C 109.985 77.837,109.839 78.000,108.776 78.000 C 107.684 78.000,105.939 79.215,106.047 79.900 C 106.321 81.635,105.993 82.000,104.163 82.000 C 102.662 82.000,102.287 82.146,102.116 82.800 C 102.001 83.240,101.703 83.601,101.453 83.601 C 101.204 83.602,100.640 84.141,100.200 84.800 C 99.760 85.459,99.175 85.998,98.900 85.999 C 98.625 85.999,98.400 86.143,98.400 86.317 C 98.400 86.492,97.815 86.807,97.100 87.017 C 96.220 87.276,95.606 87.818,95.200 88.695 C 94.735 89.699,94.198 90.106,92.810 90.505 C 91.173 90.977,90.977 91.173,90.505 92.810 C 90.106 94.198,89.699 94.735,88.695 95.200 C 87.818 95.606,87.276 96.220,87.017 97.100 C 86.807 97.815,86.492 98.400,86.317 98.400 C 86.143 98.400,86.000 98.784,86.000 99.254 C 86.000 100.253,84.054 102.232,83.243 102.058 C 82.438 101.886,82.013 102.766,82.006 104.620 C 82.000 106.219,81.983 106.237,80.665 106.083 C 78.884 105.876,77.874 106.871,78.080 108.632 C 78.227 109.890,78.174 109.943,76.525 110.190 C 74.458 110.500,74.465 110.490,74.174 113.638 C 73.938 116.194,72.801 118.000,71.428 118.000 C 70.539 118.000,70.050 118.938,69.952 120.834 C 69.862 122.573,69.816 122.635,68.726 122.474 C 67.517 122.297,66.400 122.951,66.400 123.836 C 66.400 124.133,66.625 124.320,66.900 124.253 C 67.175 124.186,67.264 124.207,67.098 124.300 C 66.931 124.392,66.914 124.661,67.059 124.896 C 67.224 125.162,67.133 125.206,66.819 125.012 C 66.451 124.784,66.384 124.921,66.573 125.516 C 66.716 125.965,66.675 126.430,66.482 126.549 C 66.289 126.669,66.106 127.436,66.075 128.254 C 66.015 129.837,65.523 130.384,64.149 130.394 C 62.765 130.404,62.324 131.392,62.100 134.994 L 61.887 138.400 60.772 138.400 C 59.289 138.400,58.411 139.353,58.350 141.029 C 58.323 141.783,58.255 142.760,58.200 143.200 C 58.145 143.640,58.078 145.350,58.050 147.000 C 58.002 149.862,57.957 150.000,57.067 150.000 C 56.553 150.000,55.998 150.135,55.833 150.300 C 55.668 150.465,55.340 150.600,55.105 150.600 C 54.365 150.600,54.080 152.704,54.022 158.600 L 53.983 162.600 52.694 163.200 C 49.925 164.490,49.985 163.625,50.099 200.589 C 50.154 218.709,50.327 233.660,50.482 233.815 C 50.637 233.970,51.471 234.145,52.337 234.203 C 53.287 234.268,54.241 234.641,54.745 235.145 C 55.714 236.114,56.325 236.269,60.443 236.587 C 64.379 236.892,65.751 237.307,67.364 238.679 C 68.089 239.295,69.241 240.102,69.924 240.471 C 70.607 240.841,71.416 241.741,71.722 242.471 C 72.028 243.202,72.751 244.360,73.328 245.044 C 75.864 248.052,76.004 256.427,73.555 258.640 C 73.092 259.058,72.276 260.262,71.742 261.315 C 71.208 262.369,70.372 263.383,69.885 263.570 C 67.647 264.426,66.265 267.679,66.304 272.000 C 66.342 276.118,66.382 276.458,66.798 276.201 C 67.030 276.058,67.083 276.240,66.926 276.649 C 66.721 277.184,66.816 277.279,67.351 277.074 C 67.791 276.905,67.945 276.965,67.777 277.237 C 67.621 277.490,67.817 277.633,68.256 277.586 C 69.829 277.420,70.000 277.591,70.000 279.320 C 70.000 281.042,70.522 282.000,71.459 282.000 C 73.134 282.000,74.070 284.019,74.521 288.600 C 74.565 289.040,74.870 289.422,75.200 289.448 C 77.628 289.643,78.234 290.046,78.080 291.368 C 77.874 293.129,78.884 294.124,80.665 293.917 C 81.983 293.763,82.000 293.781,82.006 295.380 C 82.013 297.151,82.491 298.238,83.097 297.864 C 83.699 297.492,86.000 299.769,86.000 300.736 C 86.000 301.211,86.143 301.600,86.317 301.600 C 86.492 301.600,86.807 302.185,87.017 302.900 C 87.276 303.780,87.818 304.394,88.695 304.800 C 89.699 305.265,90.106 305.802,90.505 307.190 C 90.977 308.827,91.173 309.023,92.810 309.495 C 94.198 309.894,94.735 310.301,95.200 311.305 C 95.606 312.182,96.220 312.724,97.100 312.983 C 97.815 313.193,98.400 313.508,98.400 313.683 C 98.400 313.857,98.751 314.000,99.179 314.000 C 100.246 314.000,101.890 315.603,102.060 316.809 C 102.183 317.678,102.417 317.810,103.963 317.878 C 105.856 317.961,106.412 318.435,106.174 319.762 C 105.946 321.035,106.608 321.759,108.075 321.841 C 108.804 321.882,109.533 321.934,109.695 321.958 C 109.858 321.981,110.106 322.724,110.248 323.609 C 110.594 325.775,110.725 325.823,116.700 325.968 C 117.918 325.998,118.000 326.090,118.000 327.429 C 118.000 328.773,118.764 330.081,119.479 329.960 C 121.354 329.642,122.400 330.049,122.406 331.100 C 122.418 333.237,123.956 333.943,128.687 333.983 C 130.466 333.997,130.737 334.098,130.519 334.666 C 130.334 335.149,130.409 335.242,130.794 335.004 C 131.131 334.795,131.228 334.832,131.059 335.104 C 130.914 335.339,130.931 335.608,131.098 335.700 C 131.264 335.793,131.175 335.814,130.900 335.747 C 130.221 335.582,130.265 336.590,130.962 337.169 C 131.441 337.566,133.823 337.859,137.500 337.972 C 138.231 337.995,138.400 338.230,138.400 339.224 C 138.400 339.928,138.568 340.344,138.795 340.203 C 139.031 340.057,139.084 340.238,138.926 340.649 C 138.721 341.184,138.816 341.279,139.351 341.074 C 139.760 340.917,139.942 340.970,139.799 341.202 C 139.665 341.418,139.971 341.592,140.478 341.588 C 140.985 341.584,141.850 341.660,142.400 341.757 C 142.950 341.854,144.885 341.948,146.700 341.967 C 149.408 341.994,150.000 342.112,150.000 342.624 C 150.000 342.967,150.164 343.146,150.365 343.021 C 150.569 342.896,150.649 343.314,150.547 343.963 C 150.263 345.763,150.986 345.940,158.800 345.982 C 162.977 346.005,163.003 346.011,163.640 347.131 C 163.993 347.750,165.032 348.649,165.950 349.127 L 167.619 349.997 200.021 349.986 C 236.253 349.974,234.672 350.098,236.360 347.131 C 237.036 345.941,238.060 345.812,245.700 345.949 C 246.745 345.968,247.600 345.837,247.600 345.660 C 247.600 345.482,247.996 345.351,248.480 345.368 C 249.204 345.394,249.422 345.097,249.704 343.700 L 250.047 342.000 253.324 341.967 C 255.126 341.948,257.050 341.854,257.600 341.757 C 258.150 341.660,259.015 341.584,259.522 341.588 C 260.029 341.592,260.335 341.418,260.201 341.202 C 260.058 340.970,260.240 340.917,260.649 341.074 C 261.184 341.279,261.279 341.184,261.074 340.649 C 260.916 340.238,260.969 340.057,261.205 340.203 C 261.431 340.343,261.600 339.947,261.600 339.280 L 261.600 338.113 265.006 337.900 C 268.296 337.695,269.702 337.181,269.527 336.247 C 269.176 334.375,270.736 333.689,275.522 333.610 C 276.029 333.602,276.335 333.418,276.201 333.202 C 276.058 332.970,276.240 332.917,276.649 333.074 C 277.184 333.279,277.279 333.184,277.074 332.649 C 276.916 332.238,276.969 332.057,277.205 332.203 C 277.432 332.344,277.600 331.928,277.600 331.224 C 277.600 330.101,277.716 329.996,279.000 329.950 C 279.770 329.923,280.580 329.855,280.800 329.800 C 281.020 329.745,281.401 329.678,281.647 329.650 C 281.901 329.621,282.011 329.170,281.902 328.600 C 281.797 328.050,281.866 327.600,282.055 327.600 C 282.245 327.600,282.771 327.229,283.225 326.775 C 283.768 326.232,284.590 325.942,285.625 325.927 C 286.491 325.915,287.200 325.772,287.200 325.610 C 287.200 325.447,287.695 325.333,288.300 325.357 C 289.316 325.397,289.397 325.286,289.366 323.917 C 289.348 323.102,289.483 322.528,289.666 322.641 C 289.850 322.754,290.000 322.603,290.000 322.304 C 290.000 321.924,290.400 321.807,291.335 321.917 C 293.122 322.125,294.126 321.129,293.919 319.353 L 293.765 318.036 295.782 317.918 C 297.586 317.813,297.815 317.695,297.940 316.809 C 298.096 315.703,299.725 314.000,300.626 314.000 C 300.948 314.000,301.523 313.839,301.905 313.643 C 302.287 313.447,303.099 313.089,303.709 312.847 C 304.465 312.548,304.894 312.029,305.057 311.214 C 305.259 310.204,305.580 309.939,307.138 309.499 C 308.850 309.016,309.016 308.850,309.499 307.138 C 309.939 305.580,310.204 305.259,311.214 305.057 C 312.029 304.894,312.548 304.465,312.847 303.709 C 313.089 303.099,313.447 302.287,313.643 301.905 C 313.839 301.523,314.000 300.527,314.000 299.692 C 314.000 298.417,314.200 298.055,315.241 297.439 C 315.924 297.036,316.842 296.097,317.281 295.353 C 317.896 294.310,318.345 294.000,319.240 294.000 C 320.319 294.000,322.060 292.781,321.953 292.100 C 321.713 290.582,322.073 290.098,323.696 289.756 C 325.639 289.346,325.871 288.806,325.953 284.500 L 326.000 282.000 327.429 282.000 C 329.289 282.000,330.000 281.234,330.000 279.229 C 330.000 277.720,330.081 277.600,331.100 277.594 C 333.179 277.582,333.938 276.038,333.983 271.727 C 333.999 270.109,334.899 269.196,336.142 269.535 C 336.874 269.734,337.569 268.672,337.439 267.553 C 337.364 266.910,337.427 266.307,337.579 266.213 C 337.731 266.119,337.898 265.092,337.951 263.930 C 338.055 261.667,338.413 261.174,339.707 261.512 C 340.257 261.656,340.432 261.576,340.242 261.268 C 340.052 260.960,340.186 260.897,340.649 261.074 C 341.184 261.279,341.279 261.184,341.074 260.649 C 340.916 260.238,340.969 260.057,341.205 260.203 C 341.434 260.345,341.634 259.809,341.681 258.924 C 341.726 258.086,341.800 256.860,341.847 256.200 C 341.893 255.540,341.947 253.875,341.966 252.500 C 341.998 250.157,342.059 250.000,342.933 250.000 C 343.447 250.000,344.002 249.865,344.167 249.700 C 344.332 249.535,344.660 249.400,344.895 249.400 C 345.560 249.400,345.725 248.227,345.889 242.341 C 346.026 237.425,346.115 236.863,346.786 236.688 C 347.196 236.581,348.042 235.707,348.666 234.746 L 349.800 233.000 349.901 200.323 C 350.015 163.694,350.071 164.497,347.323 163.200 L 346.052 162.600 345.894 157.400 C 345.722 151.758,345.552 150.600,344.895 150.600 C 344.660 150.600,344.332 150.465,344.167 150.300 C 344.002 150.135,343.463 150.000,342.970 150.000 C 342.074 150.000,341.774 147.893,341.615 140.478 C 341.604 139.971,341.418 139.665,341.202 139.799 C 340.970 139.942,340.917 139.760,341.074 139.351 C 341.279 138.816,341.184 138.721,340.649 138.926 C 340.186 139.103,340.052 139.040,340.242 138.732 C 340.432 138.424,340.257 138.344,339.707 138.488 C 338.375 138.836,338.078 138.343,337.846 135.397 C 337.474 130.683,337.491 130.716,335.159 130.231 C 334.179 130.027,334.104 129.839,333.863 126.987 C 333.577 123.605,333.075 122.326,332.075 122.425 C 330.192 122.612,330.000 122.448,330.000 120.649 C 330.000 118.997,329.340 117.833,328.542 118.076 C 327.614 118.359,326.024 116.077,325.819 114.168 C 325.451 110.737,325.412 110.601,324.800 110.563 C 323.330 110.474,321.997 109.859,321.967 109.257 C 321.826 106.485,321.441 106.016,319.300 106.006 C 318.088 106.000,318.000 105.907,318.000 104.633 C 318.000 102.950,317.660 102.000,317.057 101.999 C 316.806 101.998,316.240 101.459,315.800 100.800 C 315.360 100.141,314.819 99.602,314.598 99.601 C 314.376 99.601,313.958 99.015,313.668 98.300 C 313.378 97.585,312.976 96.591,312.775 96.091 C 312.551 95.536,311.943 95.089,311.214 94.943 C 310.204 94.741,309.939 94.420,309.499 92.862 C 309.016 91.150,308.850 90.984,307.138 90.501 C 305.580 90.061,305.259 89.796,305.057 88.786 C 304.911 88.055,304.465 87.450,303.909 87.228 C 302.277 86.576,301.411 86.282,300.728 86.147 C 299.660 85.935,298.092 84.273,297.940 83.191 C 297.799 82.195,297.713 82.163,294.900 82.039 C 294.131 82.006,294.000 81.778,294.000 80.480 C 294.000 78.574,293.436 78.000,291.563 78.000 C 290.074 78.000,289.567 77.332,289.437 75.200 C 289.416 74.870,288.950 74.546,288.400 74.479 C 287.850 74.413,286.950 74.293,286.400 74.212 C 285.850 74.131,285.220 74.050,285.000 74.031 C 284.780 74.013,284.246 73.469,283.813 72.823 C 283.380 72.176,282.687 71.559,282.273 71.451 C 281.858 71.342,281.638 71.062,281.783 70.827 C 281.928 70.592,281.857 70.377,281.624 70.350 C 281.391 70.323,281.020 70.255,280.800 70.200 C 280.580 70.145,279.770 70.078,279.000 70.050 C 277.777 70.006,277.600 69.870,277.600 68.974 C 277.600 67.455,276.895 66.408,275.889 66.433 C 271.427 66.542,269.617 65.819,269.606 63.924 C 269.598 62.479,269.314 62.361,265.280 62.124 C 261.663 61.912,261.154 61.664,261.512 60.293 C 261.656 59.743,261.576 59.568,261.268 59.758 C 260.960 59.948,260.897 59.814,261.074 59.351 C 261.279 58.816,261.184 58.721,260.649 58.926 C 260.240 59.083,260.058 59.030,260.201 58.798 C 260.335 58.582,260.029 58.408,259.522 58.412 C 259.015 58.416,258.150 58.340,257.600 58.243 C 257.050 58.146,255.138 58.052,253.350 58.033 L 250.100 58.000 249.794 56.700 C 249.626 55.985,249.468 55.220,249.444 55.000 C 249.420 54.780,249.190 54.600,248.933 54.600 C 248.677 54.600,248.332 54.465,248.167 54.300 C 248.002 54.135,245.486 54.000,242.577 54.000 L 237.287 54.000 237.037 53.005 C 236.764 51.917,235.470 50.897,234.097 50.688 C 233.615 50.614,233.098 50.431,232.948 50.282 C 232.592 49.926,167.408 49.926,167.052 50.282 M217.085 99.612 C 219.807 99.956,221.038 100.371,223.748 101.859 C 224.379 102.206,226.269 102.648,227.948 102.841 C 232.186 103.329,233.963 103.879,235.675 105.232 C 236.541 105.916,238.029 106.573,239.275 106.821 C 242.175 107.398,244.271 108.343,244.950 109.380 C 245.311 109.931,246.426 110.499,248.016 110.941 C 249.786 111.433,250.933 112.053,251.947 113.067 C 252.734 113.854,254.103 114.747,254.989 115.051 C 255.875 115.355,257.050 116.114,257.600 116.738 C 258.150 117.362,259.560 118.388,260.733 119.018 C 261.906 119.648,263.272 120.646,263.769 121.236 C 264.266 121.826,265.428 122.786,266.351 123.369 C 267.275 123.952,268.239 124.887,268.494 125.447 C 268.749 126.006,269.640 126.812,270.473 127.237 C 271.406 127.713,272.287 128.594,272.763 129.527 C 273.188 130.360,273.994 131.251,274.553 131.506 C 275.113 131.761,276.056 132.738,276.649 133.677 C 277.241 134.616,278.148 135.716,278.663 136.121 C 279.179 136.527,280.079 137.700,280.664 138.729 C 281.249 139.758,282.321 141.230,283.047 142.000 C 283.772 142.770,284.638 144.172,284.970 145.115 C 285.303 146.059,286.194 147.414,286.951 148.128 C 287.916 149.038,288.527 150.139,288.995 151.813 C 289.363 153.126,290.079 154.579,290.587 155.042 C 291.869 156.212,292.304 157.138,293.019 160.221 C 293.392 161.826,294.094 163.477,294.776 164.348 C 296.187 166.150,296.640 167.631,297.171 172.170 C 297.483 174.843,297.836 176.099,298.574 177.170 C 302.035 182.193,302.040 217.799,298.580 222.821 C 297.885 223.830,297.486 225.166,297.206 227.421 C 296.602 232.303,296.041 234.210,294.801 235.599 C 294.005 236.491,293.464 237.771,292.996 239.875 C 292.493 242.136,292.005 243.238,291.016 244.339 C 290.230 245.214,289.429 246.757,289.016 248.187 C 288.537 249.845,287.903 250.974,286.941 251.881 C 286.179 252.600,285.275 254.010,284.933 255.014 C 284.591 256.018,283.881 257.122,283.354 257.467 C 282.828 257.812,281.823 259.170,281.123 260.484 C 280.422 261.799,279.269 263.317,278.560 263.857 C 277.852 264.398,276.970 265.476,276.601 266.254 C 276.232 267.032,275.316 268.031,274.565 268.474 C 273.814 268.917,272.916 269.877,272.569 270.609 C 272.203 271.381,271.365 272.210,270.570 272.588 C 269.817 272.945,268.937 273.748,268.614 274.373 C 268.291 274.997,267.256 275.961,266.313 276.515 C 265.371 277.069,264.217 278.043,263.748 278.679 C 263.280 279.316,261.816 280.413,260.495 281.117 C 259.175 281.821,257.812 282.828,257.467 283.354 C 257.122 283.881,256.018 284.591,255.014 284.933 C 254.010 285.275,252.600 286.179,251.881 286.941 C 250.974 287.903,249.845 288.537,248.187 289.016 C 246.757 289.429,245.214 290.230,244.339 291.016 C 243.230 292.011,242.137 292.493,239.811 293.010 C 238.125 293.386,236.442 294.009,236.072 294.395 C 234.583 295.952,232.537 296.559,225.928 297.402 C 224.899 297.533,223.639 297.954,223.128 298.336 C 220.739 300.127,217.459 300.637,206.000 300.999 C 191.165 301.468,180.066 300.531,177.176 298.565 C 176.155 297.871,174.797 297.479,172.376 297.180 C 167.649 296.596,166.018 296.111,164.348 294.789 C 163.463 294.088,161.853 293.398,160.221 293.019 C 157.084 292.292,156.088 291.827,155.000 290.583 C 154.551 290.069,153.152 289.373,151.813 288.997 C 150.141 288.528,149.037 287.915,148.128 286.951 C 147.414 286.194,146.059 285.310,145.115 284.986 C 144.172 284.662,142.950 283.886,142.400 283.262 C 141.850 282.638,140.440 281.612,139.267 280.982 C 138.094 280.352,136.728 279.354,136.231 278.764 C 135.734 278.174,134.572 277.214,133.649 276.631 C 132.725 276.048,131.761 275.113,131.506 274.553 C 131.251 273.994,130.360 273.188,129.527 272.763 C 128.594 272.287,127.713 271.406,127.237 270.473 C 126.812 269.640,126.006 268.749,125.447 268.494 C 124.887 268.239,123.952 267.275,123.369 266.351 C 122.786 265.428,121.826 264.266,121.236 263.769 C 120.646 263.272,119.651 261.906,119.024 260.733 C 118.398 259.560,117.384 258.192,116.771 257.694 C 116.159 257.195,115.440 256.115,115.173 255.294 C 114.907 254.472,113.997 253.042,113.150 252.115 C 112.092 250.956,111.399 249.664,110.929 247.974 C 110.497 246.420,109.928 245.309,109.380 244.950 C 108.343 244.271,107.398 242.175,106.821 239.275 C 106.578 238.054,105.909 236.523,105.248 235.675 C 103.790 233.803,103.317 232.350,102.985 228.714 C 102.792 226.604,102.344 225.027,101.361 222.999 C 99.411 218.978,99.083 215.675,99.079 200.000 C 99.074 184.570,99.417 180.941,101.215 177.382 C 102.061 175.707,102.602 173.801,102.977 171.182 C 103.604 166.793,104.081 165.388,105.424 163.979 C 106.055 163.317,106.551 162.122,106.833 160.579 C 107.374 157.625,108.200 155.823,109.365 155.060 C 109.967 154.665,110.497 153.602,110.978 151.825 C 111.527 149.799,112.047 148.844,113.194 147.757 C 114.018 146.976,114.904 145.631,115.163 144.767 C 115.421 143.903,116.077 142.906,116.620 142.550 C 117.163 142.194,118.244 140.691,119.023 139.209 C 119.802 137.727,120.857 136.290,121.369 136.017 C 121.880 135.743,122.703 134.798,123.199 133.917 C 123.694 133.036,124.672 131.976,125.373 131.563 C 126.073 131.150,126.949 130.177,127.319 129.401 C 127.729 128.541,128.541 127.729,129.401 127.319 C 130.177 126.949,131.150 126.073,131.563 125.373 C 131.976 124.672,133.036 123.694,133.917 123.199 C 134.798 122.703,135.739 121.888,136.007 121.387 C 136.275 120.886,137.418 119.980,138.547 119.374 C 139.676 118.768,141.339 117.601,142.243 116.781 C 143.147 115.960,144.422 115.171,145.077 115.027 C 145.732 114.883,146.923 114.075,147.723 113.230 C 148.847 112.043,149.779 111.532,151.829 110.977 C 153.447 110.539,154.660 109.962,154.941 109.496 C 155.596 108.409,157.851 107.342,160.553 106.843 C 162.113 106.554,163.307 106.038,164.174 105.277 C 165.628 104.000,167.561 103.400,172.129 102.806 C 174.106 102.550,175.873 102.044,176.929 101.433 C 181.048 99.049,204.295 97.994,217.085 99.612 M195.600 180.633 C 191.887 181.058,190.056 181.655,189.401 182.655 C 189.036 183.211,188.100 183.933,187.321 184.259 C 185.200 185.145,181.072 189.476,180.496 191.419 C 180.232 192.310,179.437 193.913,178.728 194.983 C 176.212 198.781,176.150 207.415,178.617 210.348 C 179.138 210.966,179.947 212.499,180.417 213.753 C 181.381 216.329,181.827 216.865,185.927 220.377 C 192.404 225.924,207.246 226.560,212.760 221.526 C 217.842 216.887,218.839 215.741,219.625 213.642 C 220.071 212.448,220.862 210.966,221.383 210.348 C 223.738 207.548,223.759 198.836,221.419 195.300 C 220.838 194.422,220.009 192.772,219.576 191.633 C 218.723 189.388,214.152 184.400,212.948 184.400 C 212.589 184.400,211.715 183.786,211.008 183.035 C 209.147 181.063,201.821 179.921,195.600 180.633 M204.400 191.166 C 206.751 191.756,207.573 192.160,208.200 193.036 C 208.640 193.651,209.720 194.832,210.600 195.662 L 212.200 197.170 212.337 201.631 C 212.531 207.979,211.166 210.904,207.000 213.068 C 206.340 213.411,205.293 214.166,204.674 214.746 C 202.778 216.520,197.217 216.328,194.669 214.400 C 193.651 213.630,192.021 212.407,191.046 211.682 C 188.253 209.604,187.800 208.291,187.800 202.284 L 187.800 197.167 189.313 195.684 C 190.145 194.868,191.236 193.682,191.736 193.050 C 193.540 190.768,199.361 189.902,204.400 191.166 M109.100 205.103 C 107.807 205.905,107.829 205.491,108.611 214.391 C 109.326 222.533,109.376 222.780,110.853 225.416 C 111.523 226.614,112.301 229.018,112.767 231.336 C 113.389 234.429,113.798 235.520,114.734 236.586 C 115.841 237.847,116.404 239.130,116.961 241.659 C 117.090 242.241,117.814 243.459,118.571 244.365 C 119.328 245.271,120.322 247.014,120.780 248.237 C 121.238 249.463,122.134 250.901,122.775 251.440 C 123.414 251.978,124.335 253.239,124.820 254.242 C 125.305 255.244,125.948 256.159,126.248 256.274 C 126.547 256.389,127.458 257.409,128.272 258.541 C 131.839 263.505,136.495 268.161,141.459 271.728 C 142.591 272.542,143.611 273.453,143.726 273.752 C 143.841 274.052,144.770 274.701,145.790 275.195 C 146.810 275.689,148.017 276.596,148.471 277.211 C 148.979 277.898,150.194 278.655,151.627 279.178 C 152.909 279.645,154.705 280.652,155.620 281.416 C 156.534 282.180,157.759 282.910,158.341 283.039 C 160.861 283.594,162.151 284.157,163.386 285.241 C 164.415 286.145,165.565 286.576,168.633 287.207 C 170.932 287.680,173.400 288.484,174.581 289.146 C 181.609 293.083,218.391 293.083,225.419 289.146 C 226.600 288.484,229.068 287.680,231.367 287.207 C 234.435 286.576,235.585 286.145,236.614 285.241 C 237.849 284.157,239.139 283.594,241.659 283.039 C 242.241 282.910,243.466 282.180,244.380 281.416 C 245.295 280.652,247.092 279.645,248.373 279.178 C 249.828 278.647,250.889 277.982,251.196 277.407 C 251.468 276.900,252.659 275.995,253.845 275.395 C 255.030 274.795,256.000 274.152,256.000 273.965 C 256.000 273.779,257.035 272.862,258.300 271.929 C 263.828 267.850,267.850 263.828,271.929 258.300 C 272.862 257.035,273.784 256.000,273.977 256.000 C 274.171 256.000,274.726 255.180,275.211 254.178 C 275.696 253.175,276.596 251.983,277.211 251.529 C 277.898 251.021,278.655 249.806,279.178 248.373 C 279.645 247.091,280.652 245.295,281.416 244.380 C 282.180 243.466,282.910 242.241,283.039 241.659 C 283.594 239.139,284.157 237.849,285.241 236.614 C 286.134 235.598,286.575 234.439,287.170 231.548 C 288.012 227.459,288.578 225.725,289.371 224.801 C 290.379 223.627,290.789 221.441,291.421 213.873 L 292.061 206.211 291.088 205.374 C 290.122 204.543,289.911 204.537,260.216 204.444 C 226.634 204.339,228.800 204.146,228.800 207.242 C 228.800 209.711,228.008 212.677,226.974 214.085 C 226.443 214.808,225.474 216.526,224.820 217.901 C 224.092 219.434,223.260 220.572,222.672 220.840 C 222.143 221.081,221.422 221.884,221.069 222.624 C 220.689 223.422,219.811 224.285,218.914 224.745 C 218.081 225.171,216.995 226.070,216.501 226.743 C 215.808 227.685,214.936 228.161,212.701 228.816 C 211.105 229.284,209.153 230.106,208.363 230.644 C 204.948 232.967,195.095 233.000,191.717 230.699 C 190.882 230.131,188.899 229.285,187.310 228.819 C 185.009 228.145,184.209 227.696,183.386 226.617 C 182.817 225.871,181.822 225.077,181.174 224.851 C 180.522 224.624,179.631 223.821,179.178 223.052 C 178.727 222.288,177.771 221.215,177.053 220.668 C 176.254 220.058,175.560 219.045,175.264 218.054 C 174.997 217.164,174.331 215.904,173.784 215.254 C 172.333 213.529,171.595 211.491,171.329 208.470 C 170.932 203.971,174.224 204.398,140.038 204.411 C 112.629 204.420,110.110 204.477,109.100 205.103 M282.400 210.224 C 282.400 210.860,280.983 211.020,280.615 210.425 C 280.351 209.998,281.620 209.165,282.091 209.457 C 282.261 209.561,282.400 209.907,282.400 210.224 M279.200 211.592 C 279.691 211.903,279.799 213.082,279.795 218.086 C 279.789 225.209,279.296 227.045,277.333 227.270 C 276.204 227.400,276.199 227.413,276.000 230.860 C 275.788 234.519,275.222 235.701,273.333 236.423 C 272.672 236.676,272.357 237.306,272.005 239.078 C 271.752 240.355,271.455 241.715,271.345 242.100 C 271.040 243.171,269.824 243.665,268.622 243.208 C 266.647 242.458,267.954 236.854,270.313 235.957 C 271.786 235.397,271.987 234.953,271.994 232.247 C 272.002 229.184,273.118 227.200,274.833 227.200 L 276.000 227.200 276.000 222.655 C 276.000 217.839,276.393 214.947,277.365 212.622 C 277.993 211.118,278.236 210.982,279.200 211.592 M123.087 214.700 C 123.522 215.708,123.810 217.965,123.967 221.583 C 124.197 226.908,124.211 226.969,125.196 227.200 C 126.690 227.551,127.999 229.768,128.005 231.959 C 128.013 234.627,128.367 235.576,129.454 235.849 C 130.725 236.168,132.000 237.843,132.000 239.194 C 132.000 240.821,132.800 242.800,133.458 242.800 C 134.315 242.800,135.912 244.688,136.212 246.056 C 136.395 246.889,136.886 247.445,137.842 247.901 C 138.740 248.329,139.445 249.087,139.896 250.109 C 140.346 251.129,141.010 251.844,141.823 252.184 C 142.582 252.501,143.329 253.264,143.751 254.154 C 144.197 255.092,144.919 255.806,145.794 256.172 C 146.565 256.494,147.428 257.280,147.800 258.000 C 148.159 258.695,149.030 259.504,149.735 259.798 C 151.102 260.370,152.121 261.358,152.529 262.506 C 152.667 262.894,153.279 263.392,153.890 263.613 C 156.823 264.672,158.102 265.438,158.625 266.448 C 159.071 267.311,159.578 267.608,160.956 267.814 C 163.170 268.146,165.108 269.305,165.596 270.589 C 166.018 271.701,166.553 271.862,170.783 272.158 C 174.161 272.395,175.800 273.272,175.800 274.843 C 175.800 277.045,166.497 275.951,165.331 273.612 C 164.781 272.508,163.938 272.070,162.284 272.028 C 160.651 271.987,158.024 270.515,157.602 269.405 C 157.334 268.701,156.828 268.377,155.718 268.196 C 153.362 267.813,152.489 267.333,151.830 266.058 C 151.472 265.366,150.472 264.519,149.400 264.000 C 148.361 263.497,147.327 262.632,146.993 261.987 C 146.672 261.366,146.071 260.749,145.657 260.618 C 144.653 260.300,135.750 251.102,135.410 250.033 C 135.263 249.570,134.609 248.915,133.957 248.578 C 132.895 248.029,132.087 246.782,131.439 244.694 C 131.319 244.306,130.803 243.829,130.294 243.636 C 128.932 243.118,128.508 242.428,128.183 240.200 C 127.759 237.299,127.383 236.533,126.241 236.246 C 124.769 235.877,124.230 234.616,124.002 231.016 C 123.814 228.056,123.732 227.817,122.836 227.607 C 119.408 226.804,118.521 213.200,121.897 213.200 C 122.196 213.200,122.732 213.875,123.087 214.700 M347.178 235.619 C 345.904 236.724,345.786 236.588,346.870 235.261 C 347.381 234.635,347.863 234.284,347.940 234.480 C 348.016 234.677,347.674 235.189,347.178 235.619 M266.530 245.361 C 266.755 245.949,266.497 246.400,265.933 246.400 C 265.750 246.400,265.600 246.040,265.600 245.600 C 265.600 244.683,266.209 244.526,266.530 245.361 M260.451 253.161 L 261.390 253.921 259.195 256.248 C 257.988 257.527,256.282 259.210,255.405 259.987 C 254.528 260.764,253.477 261.809,253.070 262.308 C 251.241 264.551,248.248 264.928,247.759 262.978 C 247.454 261.764,248.384 260.585,250.265 259.798 C 250.970 259.504,251.841 258.695,252.200 258.000 C 252.579 257.267,253.437 256.493,254.244 256.156 C 255.009 255.836,255.749 255.265,255.888 254.887 C 256.822 252.345,258.609 251.669,260.451 253.161 M246.972 265.555 C 247.336 266.143,246.037 266.997,245.538 266.498 C 245.302 266.262,245.231 265.874,245.378 265.635 C 245.702 265.111,246.668 265.062,246.972 265.555 M234.585 273.084 C 235.072 275.021,232.638 275.994,227.300 275.998 L 224.000 276.000 224.000 277.190 C 224.000 279.796,223.961 279.800,200.000 279.800 C 176.180 279.800,175.784 279.757,176.083 277.204 L 176.200 276.200 181.400 276.064 C 184.490 275.982,189.359 276.208,193.400 276.620 C 199.764 277.268,200.562 277.270,205.839 276.656 C 208.940 276.295,214.295 276.000,217.739 276.000 L 224.000 276.000 224.000 275.062 C 224.000 273.028,226.208 272.109,231.257 272.041 C 234.261 272.001,234.318 272.019,234.585 273.084 M165.170 347.300 C 166.284 348.564,166.123 348.748,164.861 347.653 C 164.388 347.242,164.000 346.672,164.000 346.386 C 164.000 346.101,164.045 345.942,164.100 346.033 C 164.155 346.125,164.636 346.695,165.170 347.300 " stroke="none" fill="#e9e9f7" fill-rule="evenodd"></path><path id="path2" d="M320.600 42.298 C 318.926 42.539,318.400 43.091,318.400 44.606 C 318.400 45.970,317.884 46.400,316.247 46.400 C 314.998 46.400,314.410 47.133,314.337 48.780 C 314.285 49.953,314.233 49.852,314.037 48.200 L 313.800 46.200 308.000 46.200 L 302.200 46.200 302.200 52.000 L 302.200 57.800 308.000 57.800 L 313.800 57.800 314.040 64.800 C 314.290 72.108,314.438 73.380,315.038 73.431 C 317.614 73.652,318.400 74.111,318.400 75.396 C 318.400 77.786,318.479 77.800,332.000 77.800 C 345.522 77.800,345.600 77.786,345.600 75.394 C 345.600 74.023,346.115 73.600,347.784 73.600 C 349.735 73.600,349.800 73.163,349.800 60.000 C 349.800 46.602,349.766 46.400,347.541 46.400 C 346.367 46.400,345.773 45.570,345.454 43.478 C 345.386 43.032,344.986 42.572,344.565 42.456 C 343.626 42.199,322.268 42.058,320.600 42.298 M48.600 234.297 C 46.925 234.540,46.400 235.091,46.400 236.606 C 46.400 237.977,45.885 238.400,44.216 238.400 C 42.272 238.400,42.200 238.868,42.200 251.561 C 42.200 264.139,42.290 265.248,43.332 265.484 C 43.697 265.566,44.536 265.736,45.198 265.862 C 46.242 266.061,46.400 266.263,46.400 267.396 C 46.400 269.692,46.788 269.786,56.865 269.938 L 66.009 270.076 66.605 268.651 C 66.932 267.867,67.200 266.894,67.200 266.488 C 67.200 265.701,68.948 263.876,70.084 263.477 C 70.460 263.346,71.205 262.374,71.741 261.319 C 72.276 260.263,73.092 259.058,73.555 258.640 C 76.004 256.427,75.864 248.052,73.328 245.044 C 72.751 244.360,72.028 243.202,71.722 242.471 C 71.416 241.741,70.607 240.841,69.924 240.471 C 69.241 240.102,68.089 239.295,67.364 238.679 C 65.751 237.307,64.379 236.892,60.443 236.587 C 56.328 236.269,55.714 236.114,54.751 235.151 C 53.901 234.301,51.177 233.922,48.600 234.297 M317.281 295.353 C 316.842 296.097,315.913 297.042,315.218 297.453 L 313.954 298.200 314.077 305.715 C 314.178 311.862,314.309 313.301,314.800 313.616 C 315.557 314.102,332.430 314.076,333.220 313.587 C 334.098 313.045,334.079 294.947,333.200 294.392 C 332.870 294.183,329.333 294.009,325.340 294.006 L 318.079 294.000 317.281 295.353 " stroke="none" fill="#f7c235" fill-rule="evenodd"></path><path id="path3" d="M339.600 86.404 C 339.600 86.608,339.299 86.659,338.931 86.518 C 338.423 86.323,338.323 86.423,338.518 86.931 C 338.659 87.299,338.611 87.600,338.410 87.600 C 338.204 87.600,338.033 91.234,338.017 96.000 C 337.999 101.260,338.135 104.400,338.381 104.400 C 338.598 104.400,338.659 104.701,338.518 105.069 C 338.323 105.577,338.423 105.677,338.931 105.482 C 339.299 105.341,339.600 105.392,339.600 105.596 C 339.600 105.811,343.114 105.966,348.000 105.966 C 352.886 105.966,356.400 105.811,356.400 105.596 C 356.400 105.392,356.701 105.341,357.069 105.482 C 357.577 105.677,357.677 105.577,357.482 105.069 C 357.341 104.701,357.399 104.400,357.613 104.400 C 357.850 104.400,358.000 101.152,358.000 96.000 C 358.000 90.848,357.850 87.600,357.613 87.600 C 357.399 87.600,357.341 87.299,357.482 86.931 C 357.677 86.423,357.577 86.323,357.069 86.518 C 356.701 86.659,356.400 86.608,356.400 86.404 C 356.400 86.189,352.886 86.034,348.000 86.034 C 343.114 86.034,339.600 86.189,339.600 86.404 M188.200 100.463 C 186.440 100.660,184.100 101.074,183.000 101.383 C 181.900 101.692,180.010 102.230,178.800 102.577 C 177.590 102.924,174.980 103.486,173.000 103.825 C 170.505 104.253,168.428 104.927,166.235 106.021 C 164.494 106.890,162.835 107.600,162.549 107.600 C 161.456 107.600,158.146 108.923,156.910 109.854 C 156.200 110.388,154.330 111.351,152.753 111.992 C 151.177 112.634,149.417 113.601,148.843 114.141 C 148.270 114.682,146.940 115.523,145.888 116.012 C 144.836 116.500,143.735 117.244,143.440 117.664 C 143.145 118.085,141.885 119.043,140.640 119.793 C 138.313 121.194,135.771 123.241,132.436 126.400 C 131.391 127.390,130.101 128.596,129.568 129.081 C 126.517 131.858,120.582 138.972,119.567 141.069 C 119.095 142.044,118.294 143.113,117.787 143.446 C 117.280 143.778,116.473 144.893,115.994 145.925 C 115.515 146.956,114.682 148.270,114.141 148.843 C 113.601 149.417,112.634 151.177,111.992 152.753 C 111.351 154.330,110.388 156.200,109.854 156.910 C 108.923 158.146,107.600 161.456,107.600 162.549 C 107.600 162.835,106.890 164.494,106.021 166.235 C 104.927 168.428,104.253 170.505,103.825 173.000 C 103.486 174.980,102.937 177.545,102.604 178.700 C 102.272 179.855,101.729 181.741,101.399 182.892 C 99.230 190.438,99.713 213.968,102.153 219.663 C 102.498 220.468,103.156 223.258,103.616 225.863 C 104.252 229.472,104.826 231.354,106.026 233.765 C 106.892 235.506,107.600 237.165,107.600 237.451 C 107.600 238.612,108.950 241.837,109.997 243.175 C 110.610 243.959,111.412 245.534,111.779 246.675 C 112.147 247.816,112.997 249.436,113.669 250.275 C 114.341 251.114,115.345 252.752,115.899 253.915 C 116.454 255.078,117.253 256.272,117.675 256.567 C 118.096 256.862,119.017 258.008,119.721 259.113 C 124.333 266.356,133.673 275.688,140.924 280.302 C 142.049 281.017,143.122 281.875,143.308 282.208 C 143.494 282.540,144.761 283.373,146.123 284.058 C 147.485 284.744,149.169 285.801,149.863 286.408 C 150.558 287.015,152.088 287.826,153.263 288.210 C 154.439 288.594,156.120 289.432,157.000 290.071 C 157.880 290.710,160.130 291.699,162.000 292.267 C 163.870 292.835,165.871 293.633,166.448 294.040 C 168.012 295.144,169.210 295.516,173.376 296.186 C 175.457 296.521,178.491 297.230,180.119 297.761 C 189.081 300.687,210.448 300.705,219.686 297.794 C 221.383 297.260,224.533 296.525,226.686 296.162 C 229.329 295.716,231.444 295.073,233.200 294.183 C 234.630 293.458,236.949 292.550,238.354 292.165 C 239.758 291.780,241.738 290.901,242.754 290.211 C 243.769 289.522,245.500 288.631,246.600 288.232 C 247.700 287.832,249.236 287.009,250.014 286.403 C 250.791 285.797,252.373 284.822,253.529 284.236 C 254.685 283.650,256.014 282.730,256.483 282.191 C 256.952 281.651,258.070 280.833,258.968 280.371 C 259.865 279.909,261.230 278.944,262.000 278.227 C 262.770 277.509,264.106 276.399,264.969 275.761 C 267.025 274.240,274.278 266.992,275.761 264.978 C 276.399 264.110,277.509 262.770,278.227 262.000 C 278.944 261.230,279.909 259.865,280.371 258.968 C 280.833 258.070,281.651 256.952,282.191 256.483 C 282.730 256.014,283.650 254.685,284.236 253.529 C 284.822 252.373,285.798 250.791,286.406 250.014 C 287.014 249.236,287.899 247.536,288.374 246.236 C 288.848 244.936,289.677 243.349,290.215 242.709 C 290.753 242.070,291.574 240.254,292.040 238.673 C 292.506 237.093,293.488 234.612,294.223 233.160 C 295.144 231.341,295.750 229.333,296.174 226.698 C 296.512 224.595,297.234 221.463,297.778 219.738 C 299.491 214.301,299.792 211.326,299.796 199.800 C 299.800 188.411,299.549 185.939,297.820 180.400 C 297.305 178.750,296.588 175.600,296.226 173.400 C 295.764 170.589,295.171 168.627,294.232 166.800 C 293.497 165.370,292.574 163.051,292.180 161.646 C 291.786 160.242,290.894 158.262,290.196 157.246 C 289.499 156.231,288.609 154.439,288.220 153.263 C 287.830 152.088,287.008 150.554,286.393 149.853 C 285.778 149.153,284.783 147.542,284.183 146.274 C 283.583 145.007,282.747 143.728,282.325 143.433 C 281.904 143.138,280.983 141.992,280.279 140.887 C 278.582 138.222,275.817 134.712,273.600 132.407 C 272.610 131.378,271.404 130.101,270.919 129.568 C 268.276 126.664,260.708 120.383,258.439 119.210 C 257.647 118.801,256.792 118.120,256.537 117.697 C 256.282 117.274,255.027 116.433,253.747 115.827 C 252.468 115.221,250.847 114.222,250.147 113.607 C 249.446 112.992,247.912 112.179,246.737 111.800 C 245.561 111.421,243.970 110.626,243.200 110.034 C 241.656 108.846,240.550 108.372,237.055 107.402 C 235.765 107.044,234.029 106.301,233.199 105.752 C 232.266 105.134,230.409 104.516,228.344 104.135 C 225.027 103.523,221.252 102.607,217.395 101.480 C 212.686 100.104,196.458 99.539,188.200 100.463 M210.663 102.528 C 213.002 103.740,217.824 104.806,222.627 105.173 C 227.658 105.558,229.287 105.973,230.605 107.208 C 231.748 108.277,234.136 109.200,235.761 109.200 C 237.654 109.200,238.851 109.712,240.268 111.129 C 241.363 112.224,242.666 112.766,245.705 113.391 C 246.312 113.515,247.302 114.179,247.905 114.864 C 249.105 116.230,251.679 117.577,253.113 117.591 C 253.724 117.597,254.294 118.053,254.832 118.964 C 255.325 119.801,256.230 120.565,257.172 120.942 C 258.017 121.280,259.102 122.057,259.583 122.670 C 260.065 123.282,260.878 124.057,261.389 124.393 C 264.632 126.520,272.399 134.196,274.788 137.635 C 275.642 138.864,276.784 140.159,277.325 140.514 C 277.866 140.868,278.685 141.937,279.146 142.888 C 279.606 143.839,280.527 144.939,281.192 145.331 C 281.944 145.776,282.403 146.376,282.409 146.923 C 282.423 148.325,283.784 150.907,285.136 152.095 C 285.821 152.698,286.485 153.688,286.609 154.295 C 287.234 157.334,287.776 158.637,288.871 159.732 C 290.288 161.149,290.800 162.346,290.800 164.239 C 290.800 165.924,291.602 167.931,293.015 169.784 C 294.103 171.211,294.286 172.106,295.147 180.239 C 295.367 182.317,296.076 185.492,296.800 187.639 C 298.208 191.815,298.822 199.392,298.207 205.013 L 297.902 207.800 297.419 205.922 C 296.084 200.741,298.102 201.019,260.917 200.891 L 229.233 200.781 227.992 201.891 C 227.099 202.688,226.687 203.478,226.523 204.700 C 226.106 207.808,225.697 206.460,225.491 201.300 C 225.252 195.326,224.826 193.674,223.002 191.655 C 222.262 190.836,221.532 189.667,221.379 189.057 C 221.063 187.798,216.002 182.400,215.137 182.400 C 214.826 182.400,213.727 181.604,212.697 180.630 C 211.050 179.075,210.544 178.831,208.512 178.618 C 207.240 178.485,205.225 178.201,204.033 177.988 C 201.283 177.496,198.717 177.496,195.967 177.988 C 194.775 178.201,192.755 178.485,191.478 178.619 C 189.463 178.831,188.892 179.097,187.164 180.632 C 186.069 181.604,184.984 182.400,184.752 182.400 C 183.861 182.400,179.222 187.322,178.767 188.749 C 178.513 189.547,177.796 190.740,177.173 191.400 C 175.198 193.493,174.696 195.305,174.487 201.100 C 174.294 206.436,173.899 207.845,173.477 204.700 C 173.313 203.478,172.901 202.688,172.008 201.891 L 170.767 200.781 139.083 200.891 C 108.310 200.997,107.354 201.023,105.814 201.800 C 103.852 202.790,102.413 204.856,102.360 206.759 L 102.320 208.200 101.925 206.600 C 101.289 204.018,101.749 190.845,102.529 189.338 C 103.679 187.113,104.809 182.276,105.037 178.600 C 105.364 173.343,105.933 170.754,107.018 169.600 C 108.255 168.283,109.200 165.962,109.200 164.239 C 109.200 162.361,109.701 161.176,111.179 159.561 C 112.329 158.304,112.794 157.197,113.391 154.295 C 113.515 153.688,114.172 152.698,114.849 152.095 C 116.324 150.784,117.032 149.500,117.419 147.441 C 117.634 146.293,118.033 145.717,119.017 145.137 C 119.802 144.674,120.574 143.748,120.942 142.828 C 121.280 141.983,122.018 140.930,122.581 140.486 C 123.145 140.043,124.381 138.627,125.328 137.340 C 127.546 134.327,134.327 127.546,137.340 125.328 C 138.627 124.381,140.043 123.145,140.486 122.581 C 140.930 122.018,141.983 121.280,142.828 120.942 C 143.748 120.574,144.674 119.802,145.137 119.017 C 145.717 118.033,146.293 117.634,147.441 117.419 C 149.500 117.032,150.784 116.324,152.095 114.849 C 152.698 114.172,153.688 113.515,154.295 113.391 C 157.197 112.794,158.304 112.329,159.561 111.179 C 161.176 109.701,162.361 109.200,164.239 109.200 C 165.959 109.200,168.280 108.257,169.600 107.022 C 170.725 105.968,173.800 105.202,176.920 105.197 C 179.984 105.193,183.829 104.485,187.000 103.342 C 192.146 101.486,207.626 100.954,210.663 102.528 M208.375 179.995 C 210.041 180.311,210.841 180.725,211.793 181.764 C 212.476 182.510,213.690 183.394,214.491 183.729 C 215.292 184.063,216.216 184.846,216.546 185.468 C 216.875 186.091,217.751 187.074,218.493 187.654 C 219.296 188.281,220.064 189.383,220.392 190.376 C 220.695 191.294,221.433 192.530,222.032 193.122 C 223.658 194.731,223.995 196.685,223.998 204.513 C 224.000 210.938,223.932 211.646,223.300 211.841 C 221.747 212.321,221.369 212.769,220.662 214.968 C 220.131 216.621,219.468 217.671,218.287 218.731 C 217.386 219.539,215.807 221.035,214.780 222.055 C 213.342 223.483,212.506 223.976,211.155 224.195 C 208.711 224.591,206.000 225.836,206.000 226.563 C 206.000 229.061,214.281 228.017,215.382 225.380 C 215.830 224.309,216.192 224.000,216.998 224.000 C 218.247 224.000,220.000 222.364,220.000 221.198 C 220.000 220.616,220.433 220.178,221.414 219.769 C 222.959 219.123,223.269 218.566,224.040 215.042 C 224.408 213.356,224.766 212.629,225.294 212.491 C 226.302 212.228,227.050 210.628,227.395 208.000 C 227.707 205.626,228.806 203.437,229.896 203.019 C 230.270 202.875,243.901 202.789,260.188 202.827 C 291.801 202.901,291.250 202.866,293.122 204.898 L 294.044 205.899 293.012 213.249 C 291.507 223.969,291.261 225.154,289.988 227.800 C 289.353 229.120,288.545 231.445,288.192 232.967 C 287.539 235.789,286.846 237.421,285.545 239.200 C 285.143 239.750,284.461 241.232,284.030 242.494 C 283.600 243.756,282.705 245.466,282.042 246.294 C 281.379 247.122,280.538 248.520,280.173 249.400 C 279.809 250.280,278.855 251.742,278.055 252.649 C 277.255 253.556,276.107 255.086,275.504 256.049 C 273.589 259.109,269.005 264.595,266.420 266.919 C 265.881 267.404,264.711 268.532,263.820 269.427 C 262.929 270.321,261.390 271.605,260.400 272.280 C 259.410 272.955,258.240 273.907,257.800 274.397 C 257.360 274.886,256.190 275.699,255.200 276.204 C 254.210 276.708,252.950 277.608,252.400 278.204 C 251.850 278.799,250.500 279.689,249.400 280.180 C 248.300 280.672,246.828 281.558,246.128 282.149 C 245.429 282.740,243.809 283.581,242.528 284.019 C 241.248 284.456,239.750 285.143,239.200 285.545 C 237.397 286.863,235.747 287.557,232.845 288.217 C 231.273 288.575,229.045 289.369,227.893 289.982 C 225.395 291.312,225.080 291.386,217.400 292.431 C 214.100 292.880,209.600 293.501,207.400 293.811 C 205.200 294.121,201.870 294.375,200.000 294.375 C 198.130 294.375,194.800 294.121,192.600 293.811 C 190.400 293.501,185.900 292.880,182.600 292.431 C 174.843 291.375,174.510 291.300,172.517 290.154 C 171.591 289.621,169.093 288.734,166.965 288.181 C 164.544 287.552,162.481 286.735,161.449 285.997 C 160.542 285.349,158.721 284.449,157.401 283.997 C 156.082 283.545,154.325 282.631,153.497 281.965 C 152.669 281.300,151.319 280.479,150.496 280.142 C 149.673 279.804,148.418 278.971,147.707 278.292 C 146.996 277.613,145.622 276.594,144.653 276.028 C 138.308 272.323,128.330 262.344,123.746 255.117 C 123.056 254.029,122.038 252.658,121.483 252.070 C 120.928 251.481,120.198 250.327,119.859 249.504 C 119.521 248.681,118.700 247.331,118.035 246.503 C 117.369 245.675,116.455 243.918,116.003 242.599 C 115.551 241.279,114.650 239.457,114.001 238.549 C 113.308 237.579,112.461 235.514,111.951 233.549 C 111.473 231.707,110.585 229.203,109.977 227.984 C 108.738 225.496,108.457 224.145,106.965 213.473 L 105.912 205.945 106.856 204.921 C 108.860 202.747,108.032 202.800,139.954 202.800 C 156.224 202.800,169.816 202.908,170.159 203.040 C 171.191 203.436,172.284 205.664,172.572 207.963 C 172.896 210.537,173.692 212.226,174.706 212.491 C 175.234 212.629,175.592 213.356,175.960 215.042 C 176.721 218.519,177.092 219.229,178.406 219.725 C 179.206 220.027,179.737 220.603,180.028 221.486 C 180.525 222.992,181.761 224.000,183.109 224.000 C 183.793 224.000,184.194 224.367,184.618 225.380 C 185.790 228.185,194.811 229.035,193.885 226.254 C 193.698 225.692,190.727 224.520,188.663 224.193 C 187.553 224.017,186.604 223.431,185.239 222.075 C 184.201 221.044,182.642 219.564,181.776 218.787 C 180.719 217.839,179.871 216.527,179.200 214.801 C 178.414 212.778,177.986 212.178,177.200 211.996 L 176.200 211.765 176.080 204.982 C 175.931 196.558,176.120 195.147,177.629 193.428 C 178.276 192.691,179.245 191.094,179.783 189.878 C 180.359 188.575,181.089 187.562,181.560 187.413 C 182.000 187.273,182.749 186.530,183.224 185.761 C 183.724 184.952,184.801 184.028,185.779 183.568 C 186.709 183.131,187.852 182.255,188.321 181.621 C 189.222 180.402,190.003 180.137,194.310 179.590 C 197.491 179.187,205.297 179.411,208.375 179.995 M196.000 192.639 C 193.455 193.110,193.178 193.275,192.409 194.783 C 191.968 195.646,191.111 196.591,190.504 196.882 C 189.530 197.348,189.361 197.717,189.073 200.005 C 188.353 205.720,190.143 209.634,194.486 211.841 C 195.523 212.368,196.564 213.159,196.800 213.599 C 197.509 214.926,202.197 214.766,203.289 213.378 C 203.731 212.816,204.783 212.080,205.626 211.743 C 207.546 210.975,210.676 207.268,211.039 205.332 C 211.624 202.212,210.724 197.527,209.400 196.802 C 208.740 196.440,207.916 195.551,207.568 194.826 C 207.221 194.101,206.629 193.336,206.253 193.125 C 205.512 192.711,197.632 192.337,196.000 192.639 M294.690 223.128 C 294.502 227.688,293.914 229.589,293.366 227.409 C 293.066 226.211,293.463 218.422,293.880 217.336 C 294.461 215.821,294.871 218.751,294.690 223.128 M106.630 221.851 C 106.948 226.490,106.608 229.473,105.906 228.218 C 105.371 227.261,105.003 220.578,105.376 218.590 C 105.828 216.176,106.331 217.484,106.630 221.851 M195.588 229.131 L 194.600 229.933 195.800 230.266 C 197.670 230.786,203.900 230.660,204.469 230.091 C 206.056 228.504,197.500 227.579,195.588 229.131 M110.730 235.833 C 110.918 238.790,110.317 240.087,109.615 238.239 C 109.151 237.018,109.051 233.083,109.473 232.660 C 110.069 232.064,110.570 233.330,110.730 235.833 M290.707 235.600 C 290.505 238.429,290.191 239.365,289.572 238.983 C 289.077 238.677,289.096 234.727,289.599 233.402 C 290.320 231.507,290.915 232.689,290.707 235.600 M346.870 235.261 C 346.358 235.888,346.015 236.400,346.108 236.400 C 346.536 236.400,348.064 234.798,347.940 234.480 C 347.863 234.284,347.381 234.635,346.870 235.261 M348.089 235.517 L 347.179 237.000 348.189 235.878 C 348.745 235.260,349.200 234.585,349.200 234.378 C 349.200 233.790,349.065 233.928,348.089 235.517 M114.709 244.000 C 115.010 245.582,115.003 246.351,114.685 246.736 C 113.953 247.623,113.200 246.129,113.200 243.790 C 113.200 240.308,114.029 240.423,114.709 244.000 M286.800 243.650 C 286.800 246.187,286.128 247.663,285.416 246.690 C 284.996 246.116,285.202 244.097,285.966 241.276 C 286.199 240.418,286.800 242.129,286.800 243.650 M118.548 249.900 C 119.062 251.687,118.994 254.200,118.430 254.200 C 117.859 254.200,116.671 250.132,117.059 249.504 C 117.406 248.943,118.344 249.193,118.548 249.900 M282.847 249.700 C 282.873 249.975,282.857 250.380,282.812 250.600 C 282.766 250.820,282.605 251.720,282.453 252.600 C 282.117 254.553,280.940 254.902,281.103 253.000 C 281.334 250.293,281.655 249.200,282.218 249.200 C 282.538 249.200,282.821 249.425,282.847 249.700 M122.800 258.076 C 122.800 258.834,121.818 259.076,121.411 258.418 C 121.282 258.209,121.298 257.550,121.447 256.955 C 121.756 255.725,122.800 256.591,122.800 258.076 M278.637 257.005 C 278.974 258.347,278.106 259.477,277.332 258.704 C 276.896 258.267,276.889 257.967,277.298 257.087 C 277.925 255.737,278.313 255.714,278.637 257.005 M126.589 262.835 L 126.296 263.759 125.542 262.828 C 124.949 262.096,124.889 261.775,125.260 261.328 C 125.978 260.463,126.981 261.600,126.589 262.835 M274.800 261.976 C 274.800 262.403,274.604 262.874,274.365 263.022 C 273.754 263.400,273.046 262.579,273.334 261.827 C 273.677 260.933,274.800 261.048,274.800 261.976 M130.358 265.749 C 130.799 266.281,130.583 267.600,130.053 267.600 C 129.910 267.600,129.563 267.233,129.283 266.784 C 128.475 265.491,129.403 264.599,130.358 265.749 M270.990 265.584 C 271.237 265.984,270.401 267.600,269.947 267.600 C 269.417 267.600,269.201 266.281,269.642 265.749 C 270.176 265.106,270.658 265.047,270.990 265.584 M134.385 269.782 C 135.353 270.948,134.297 271.550,133.002 270.571 C 132.317 270.054,132.289 269.915,132.802 269.590 C 133.612 269.078,133.822 269.104,134.385 269.782 M267.198 269.590 C 267.711 269.915,267.683 270.054,266.998 270.571 C 265.703 271.550,264.647 270.948,265.615 269.782 C 266.178 269.104,266.388 269.078,267.198 269.590 M138.756 273.747 C 139.542 274.695,138.344 275.316,137.232 274.537 C 136.515 274.035,136.435 273.824,136.859 273.555 C 137.638 273.061,138.237 273.122,138.756 273.747 M263.000 274.005 C 263.000 274.332,262.595 274.658,262.100 274.728 C 261.224 274.852,260.851 274.083,261.480 273.453 C 261.947 272.987,263.000 273.370,263.000 274.005 M258.756 277.347 C 259.434 278.164,258.353 278.904,256.984 278.560 L 255.891 278.286 256.845 277.552 C 257.999 276.665,258.174 276.646,258.756 277.347 M143.387 277.741 C 144.083 278.250,144.063 278.297,143.045 278.553 C 141.808 278.863,141.200 278.607,141.200 277.776 C 141.200 277.050,142.415 277.030,143.387 277.741 M149.927 281.440 C 151.095 281.678,150.960 283.056,149.785 282.888 C 145.896 282.333,145.263 282.070,145.784 281.226 C 145.996 280.884,147.595 280.966,149.927 281.440 M254.200 281.622 C 254.200 281.958,253.567 282.287,252.600 282.453 C 251.720 282.605,250.820 282.766,250.600 282.812 C 249.720 282.995,249.200 282.770,249.200 282.208 C 249.200 281.619,249.902 281.354,252.200 281.073 C 253.836 280.873,254.200 280.973,254.200 281.622 M156.858 285.525 C 159.237 285.931,159.051 286.574,156.512 286.720 C 154.000 286.865,152.499 286.245,153.231 285.363 C 153.496 285.043,154.029 284.882,154.415 285.005 C 154.801 285.127,155.901 285.361,156.858 285.525 M246.777 285.372 C 247.492 286.234,245.994 286.866,243.583 286.720 C 240.247 286.519,241.342 285.687,246.051 284.845 C 246.189 284.820,246.516 285.057,246.777 285.372 M166.598 289.599 C 168.493 290.320,167.311 290.915,164.400 290.707 C 161.571 290.505,160.635 290.191,161.017 289.572 C 161.323 289.077,165.273 289.096,166.598 289.599 M239.000 289.601 C 239.404 290.254,237.217 290.844,234.859 290.718 C 232.614 290.597,231.599 289.806,233.277 289.485 C 235.109 289.135,238.758 289.209,239.000 289.601 M182.721 293.964 C 183.803 294.570,180.813 294.927,176.427 294.716 C 172.304 294.517,171.099 294.188,172.057 293.524 C 172.716 293.067,181.787 293.441,182.721 293.964 M227.943 293.556 C 228.928 294.180,227.650 294.519,223.573 294.716 C 219.704 294.902,216.475 294.592,216.984 294.083 C 217.669 293.398,226.986 292.950,227.943 293.556 M205.200 297.485 C 207.156 297.733,207.267 297.793,206.200 298.034 C 204.550 298.407,196.159 298.456,194.200 298.104 L 192.600 297.817 194.200 297.565 C 196.495 297.204,202.625 297.160,205.200 297.485 M91.600 338.404 C 91.600 338.608,91.299 338.659,90.931 338.518 C 90.423 338.323,90.323 338.423,90.518 338.931 C 90.659 339.299,90.611 339.600,90.410 339.600 C 90.204 339.600,90.033 343.234,90.017 348.000 C 89.999 353.260,90.135 356.400,90.381 356.400 C 90.598 356.400,90.659 356.701,90.518 357.069 C 90.323 357.577,90.423 357.677,90.931 357.482 C 91.299 357.341,91.600 357.392,91.600 357.596 C 91.600 357.811,95.114 357.966,100.000 357.966 C 104.886 357.966,108.400 357.811,108.400 357.596 C 108.400 357.392,108.701 357.341,109.069 357.482 C 109.577 357.677,109.677 357.577,109.482 357.069 C 109.341 356.701,109.399 356.400,109.613 356.400 C 109.850 356.400,110.000 353.152,110.000 348.000 C 110.000 342.848,109.850 339.600,109.613 339.600 C 109.399 339.600,109.341 339.299,109.482 338.931 C 109.677 338.423,109.577 338.323,109.069 338.518 C 108.701 338.659,108.400 338.608,108.400 338.404 C 108.400 338.189,104.886 338.034,100.000 338.034 C 95.114 338.034,91.600 338.189,91.600 338.404 M162.812 346.278 C 162.805 346.540,163.205 347.179,163.700 347.697 C 164.195 348.215,164.400 348.360,164.156 348.020 C 163.912 347.679,163.512 347.040,163.268 346.600 C 163.024 346.160,162.819 346.015,162.812 346.278 M164.000 346.386 C 164.000 346.672,164.388 347.242,164.861 347.653 C 166.123 348.748,166.284 348.564,165.170 347.300 C 164.636 346.695,164.155 346.125,164.100 346.033 C 164.045 345.942,164.000 346.101,164.000 346.386 " stroke="none" fill="#94848c" fill-rule="evenodd"></path><path id="path4" d="M188.199 99.190 C 181.605 99.548,179.441 99.979,176.929 101.433 C 175.873 102.044,174.106 102.550,172.129 102.806 C 167.561 103.400,165.628 104.000,164.174 105.277 C 163.307 106.038,162.113 106.554,160.553 106.843 C 157.851 107.342,155.596 108.409,154.941 109.496 C 154.660 109.962,153.447 110.539,151.829 110.977 C 149.779 111.532,148.847 112.043,147.723 113.230 C 146.923 114.075,145.732 114.883,145.077 115.027 C 144.422 115.171,143.147 115.960,142.243 116.781 C 141.339 117.601,139.676 118.768,138.547 119.374 C 137.418 119.980,136.275 120.886,136.007 121.387 C 135.739 121.888,134.798 122.703,133.917 123.199 C 133.036 123.694,131.976 124.672,131.563 125.373 C 131.150 126.073,130.177 126.949,129.401 127.319 C 128.541 127.729,127.729 128.541,127.319 129.401 C 126.949 130.177,126.073 131.150,125.373 131.563 C 124.672 131.976,123.694 133.036,123.199 133.917 C 122.703 134.798,121.880 135.743,121.369 136.017 C 120.857 136.290,119.802 137.727,119.023 139.209 C 118.244 140.691,117.163 142.194,116.620 142.550 C 116.077 142.906,115.421 143.903,115.163 144.767 C 114.904 145.631,114.018 146.976,113.194 147.757 C 112.047 148.844,111.527 149.799,110.978 151.825 C 110.497 153.602,109.967 154.665,109.365 155.060 C 108.200 155.823,107.374 157.625,106.833 160.579 C 106.551 162.122,106.055 163.317,105.424 163.979 C 104.081 165.388,103.604 166.793,102.977 171.182 C 102.602 173.801,102.061 175.707,101.215 177.382 C 99.417 180.941,99.074 184.570,99.079 200.000 C 99.083 215.675,99.411 218.978,101.361 222.999 C 102.344 225.027,102.792 226.604,102.985 228.714 C 103.317 232.350,103.790 233.803,105.248 235.675 C 105.909 236.523,106.578 238.054,106.821 239.275 C 107.398 242.175,108.343 244.271,109.380 244.950 C 109.928 245.309,110.497 246.420,110.929 247.974 C 111.399 249.664,112.092 250.956,113.150 252.115 C 113.997 253.042,114.907 254.472,115.173 255.294 C 115.440 256.115,116.159 257.195,116.771 257.694 C 117.384 258.192,118.398 259.560,119.024 260.733 C 119.651 261.906,120.646 263.272,121.236 263.769 C 121.826 264.266,122.786 265.428,123.369 266.351 C 123.952 267.275,124.887 268.239,125.447 268.494 C 126.006 268.749,126.812 269.640,127.237 270.473 C 127.713 271.406,128.594 272.287,129.527 272.763 C 130.360 273.188,131.251 273.994,131.506 274.553 C 131.761 275.113,132.725 276.048,133.649 276.631 C 134.572 277.214,135.734 278.174,136.231 278.764 C 136.728 279.354,138.094 280.352,139.267 280.982 C 140.440 281.612,141.850 282.638,142.400 283.262 C 142.950 283.886,144.172 284.662,145.115 284.986 C 146.059 285.310,147.414 286.194,148.128 286.951 C 149.037 287.915,150.141 288.528,151.813 288.997 C 153.152 289.373,154.551 290.069,155.000 290.583 C 156.088 291.827,157.084 292.292,160.221 293.019 C 161.853 293.398,163.463 294.088,164.348 294.789 C 166.018 296.111,167.649 296.596,172.376 297.180 C 174.797 297.479,176.155 297.871,177.176 298.565 C 180.066 300.531,191.165 301.468,206.000 300.999 C 217.459 300.637,220.739 300.127,223.128 298.336 C 223.639 297.954,224.899 297.533,225.928 297.402 C 232.537 296.559,234.583 295.952,236.072 294.395 C 236.442 294.009,238.125 293.386,239.811 293.010 C 242.137 292.493,243.230 292.011,244.339 291.016 C 245.214 290.230,246.757 289.429,248.187 289.016 C 249.845 288.537,250.974 287.903,251.881 286.941 C 252.600 286.179,254.010 285.275,255.014 284.933 C 256.018 284.591,257.122 283.881,257.467 283.354 C 257.812 282.828,259.175 281.821,260.495 281.117 C 261.816 280.413,263.280 279.316,263.748 278.679 C 264.217 278.043,265.371 277.069,266.313 276.515 C 267.256 275.961,268.291 274.997,268.614 274.373 C 268.937 273.748,269.817 272.945,270.570 272.588 C 271.365 272.210,272.203 271.381,272.569 270.609 C 272.916 269.877,273.814 268.917,274.565 268.474 C 275.316 268.031,276.232 267.032,276.601 266.254 C 276.970 265.476,277.852 264.398,278.560 263.857 C 279.269 263.317,280.422 261.799,281.123 260.484 C 281.823 259.170,282.828 257.812,283.354 257.467 C 283.881 257.122,284.591 256.018,284.933 255.014 C 285.275 254.010,286.179 252.600,286.941 251.881 C 287.903 250.974,288.537 249.845,289.016 248.187 C 289.429 246.757,290.230 245.214,291.016 244.339 C 292.005 243.238,292.493 242.136,292.996 239.875 C 293.464 237.771,294.005 236.491,294.801 235.599 C 296.041 234.210,296.602 232.303,297.206 227.421 C 297.486 225.166,297.885 223.830,298.580 222.821 C 302.040 217.799,302.035 182.193,298.574 177.170 C 297.836 176.099,297.483 174.843,297.171 172.170 C 296.640 167.631,296.187 166.150,294.776 164.348 C 294.094 163.477,293.392 161.826,293.019 160.221 C 292.304 157.138,291.869 156.212,290.587 155.042 C 290.079 154.579,289.363 153.126,288.995 151.813 C 288.527 150.139,287.916 149.038,286.951 148.128 C 286.194 147.414,285.303 146.059,284.970 145.115 C 284.638 144.172,283.772 142.770,283.047 142.000 C 282.321 141.230,281.249 139.758,280.664 138.729 C 280.079 137.700,279.179 136.527,278.663 136.121 C 278.148 135.716,277.241 134.616,276.649 133.677 C 276.056 132.738,275.113 131.761,274.553 131.506 C 273.994 131.251,273.188 130.360,272.763 129.527 C 272.287 128.594,271.406 127.713,270.473 127.237 C 269.640 126.812,268.749 126.006,268.494 125.447 C 268.239 124.887,267.275 123.952,266.351 123.369 C 265.428 122.786,264.266 121.826,263.769 121.236 C 263.272 120.646,261.906 119.648,260.733 119.018 C 259.560 118.388,258.150 117.362,257.600 116.738 C 257.050 116.114,255.875 115.355,254.989 115.051 C 254.103 114.747,252.734 113.854,251.947 113.067 C 250.933 112.053,249.786 111.433,248.016 110.941 C 246.426 110.499,245.311 109.931,244.950 109.380 C 244.271 108.343,242.175 107.398,239.275 106.821 C 238.029 106.573,236.541 105.916,235.675 105.232 C 233.963 103.879,232.186 103.329,227.948 102.841 C 226.269 102.648,224.379 102.206,223.748 101.859 C 221.038 100.371,219.807 99.956,217.085 99.612 C 212.830 99.074,195.106 98.815,188.199 99.190 M211.279 100.447 C 213.540 100.693,216.292 101.158,217.395 101.480 C 221.252 102.607,225.027 103.523,228.344 104.135 C 230.409 104.516,232.266 105.134,233.199 105.752 C 234.029 106.301,235.765 107.044,237.055 107.402 C 240.550 108.372,241.656 108.846,243.200 110.034 C 243.970 110.626,245.561 111.421,246.737 111.800 C 247.912 112.179,249.446 112.992,250.147 113.607 C 250.847 114.222,252.468 115.221,253.747 115.827 C 255.027 116.433,256.282 117.274,256.537 117.697 C 256.792 118.120,257.647 118.801,258.439 119.210 C 260.708 120.383,268.276 126.664,270.919 129.568 C 271.404 130.101,272.610 131.378,273.600 132.407 C 275.817 134.712,278.582 138.222,280.279 140.887 C 280.983 141.992,281.904 143.138,282.325 143.433 C 282.747 143.728,283.583 145.007,284.183 146.274 C 284.783 147.542,285.778 149.153,286.393 149.853 C 287.008 150.554,287.830 152.088,288.220 153.263 C 288.609 154.439,289.499 156.231,290.196 157.246 C 290.894 158.262,291.786 160.242,292.180 161.646 C 292.574 163.051,293.497 165.370,294.232 166.800 C 295.171 168.627,295.764 170.589,296.226 173.400 C 296.588 175.600,297.305 178.750,297.820 180.400 C 300.733 189.737,300.711 210.428,297.778 219.738 C 297.234 221.463,296.512 224.595,296.174 226.698 C 295.750 229.333,295.144 231.341,294.223 233.160 C 293.488 234.612,292.506 237.093,292.040 238.673 C 291.574 240.254,290.753 242.070,290.215 242.709 C 289.677 243.349,288.848 244.936,288.374 246.236 C 287.899 247.536,287.014 249.236,286.406 250.014 C 285.798 250.791,284.822 252.373,284.236 253.529 C 283.650 254.685,282.730 256.014,282.191 256.483 C 281.651 256.952,280.833 258.070,280.371 258.968 C 279.909 259.865,278.944 261.230,278.227 262.000 C 277.509 262.770,276.399 264.110,275.761 264.978 C 274.278 266.992,267.025 274.240,264.969 275.761 C 264.106 276.399,262.770 277.509,262.000 278.227 C 261.230 278.944,259.865 279.909,258.968 280.371 C 258.070 280.833,256.952 281.651,256.483 282.191 C 256.014 282.730,254.685 283.650,253.529 284.236 C 252.373 284.822,250.791 285.797,250.014 286.403 C 249.236 287.009,247.700 287.832,246.600 288.232 C 245.500 288.631,243.769 289.522,242.754 290.211 C 241.738 290.901,239.758 291.780,238.354 292.165 C 236.949 292.550,234.630 293.458,233.200 294.183 C 231.444 295.073,229.329 295.716,226.686 296.162 C 224.533 296.525,221.383 297.260,219.686 297.794 C 210.448 300.705,189.081 300.687,180.119 297.761 C 178.491 297.230,175.457 296.521,173.376 296.186 C 169.210 295.516,168.012 295.144,166.448 294.040 C 165.871 293.633,163.870 292.835,162.000 292.267 C 160.130 291.699,157.880 290.710,157.000 290.071 C 156.120 289.432,154.439 288.594,153.263 288.210 C 152.088 287.826,150.558 287.015,149.863 286.408 C 149.169 285.801,147.485 284.744,146.123 284.058 C 144.761 283.373,143.494 282.540,143.308 282.208 C 143.122 281.875,142.049 281.017,140.924 280.302 C 133.673 275.688,124.333 266.356,119.721 259.113 C 119.017 258.008,118.096 256.862,117.675 256.567 C 117.253 256.272,116.454 255.078,115.899 253.915 C 115.345 252.752,114.341 251.114,113.669 250.275 C 112.997 249.436,112.147 247.816,111.779 246.675 C 111.412 245.534,110.610 243.959,109.997 243.175 C 108.950 241.837,107.600 238.612,107.600 237.451 C 107.600 237.165,106.892 235.506,106.026 233.765 C 104.826 231.354,104.252 229.472,103.616 225.863 C 103.156 223.258,102.498 220.468,102.153 219.663 C 99.713 213.968,99.230 190.438,101.399 182.892 C 101.729 181.741,102.272 179.855,102.604 178.700 C 102.937 177.545,103.486 174.980,103.825 173.000 C 104.253 170.505,104.927 168.428,106.021 166.235 C 106.890 164.494,107.600 162.835,107.600 162.549 C 107.600 161.456,108.923 158.146,109.854 156.910 C 110.388 156.200,111.351 154.330,111.992 152.753 C 112.634 151.177,113.601 149.417,114.141 148.843 C 114.682 148.270,115.515 146.956,115.994 145.925 C 116.473 144.893,117.280 143.778,117.787 143.446 C 118.294 143.113,119.095 142.044,119.567 141.069 C 120.582 138.972,126.517 131.858,129.568 129.081 C 130.101 128.596,131.391 127.390,132.436 126.400 C 135.771 123.241,138.313 121.194,140.640 119.793 C 141.885 119.043,143.145 118.085,143.440 117.664 C 143.735 117.244,144.836 116.500,145.888 116.012 C 146.940 115.523,148.270 114.682,148.843 114.141 C 149.417 113.601,151.177 112.634,152.753 111.992 C 154.330 111.351,156.200 110.388,156.910 109.854 C 158.146 108.923,161.456 107.600,162.549 107.600 C 162.835 107.600,164.494 106.890,166.235 106.021 C 168.428 104.927,170.505 104.253,173.000 103.825 C 174.980 103.486,177.590 102.924,178.800 102.577 C 180.010 102.230,181.900 101.692,183.000 101.383 C 187.649 100.076,203.150 99.563,211.279 100.447 M194.310 179.590 C 190.003 180.137,189.222 180.402,188.321 181.621 C 187.852 182.255,186.709 183.131,185.779 183.568 C 184.801 184.028,183.724 184.952,183.224 185.761 C 182.749 186.530,182.000 187.273,181.560 187.413 C 181.089 187.562,180.359 188.575,179.783 189.878 C 179.245 191.094,178.276 192.691,177.629 193.428 C 176.120 195.147,175.931 196.558,176.080 204.982 L 176.200 211.765 177.200 211.996 C 177.986 212.178,178.414 212.778,179.200 214.801 C 179.871 216.527,180.719 217.839,181.776 218.787 C 182.642 219.564,184.201 221.044,185.239 222.075 C 186.604 223.431,187.553 224.017,188.663 224.193 C 190.727 224.520,193.698 225.692,193.885 226.254 C 194.811 229.035,185.790 228.185,184.618 225.380 C 184.194 224.367,183.793 224.000,183.109 224.000 C 181.761 224.000,180.525 222.992,180.028 221.486 C 179.737 220.603,179.206 220.027,178.406 219.725 C 177.092 219.229,176.721 218.519,175.960 215.042 C 175.592 213.356,175.234 212.629,174.706 212.491 C 173.692 212.226,172.896 210.537,172.572 207.963 C 172.284 205.664,171.191 203.436,170.159 203.040 C 169.816 202.908,156.224 202.800,139.954 202.800 C 108.032 202.800,108.860 202.747,106.856 204.921 L 105.912 205.945 106.965 213.473 C 108.457 224.145,108.738 225.496,109.977 227.984 C 110.585 229.203,111.473 231.707,111.951 233.549 C 112.461 235.514,113.308 237.579,114.001 238.549 C 114.650 239.457,115.551 241.279,116.003 242.599 C 116.455 243.918,117.369 245.675,118.035 246.503 C 118.700 247.331,119.521 248.681,119.859 249.504 C 120.198 250.327,120.928 251.481,121.483 252.070 C 122.038 252.658,123.056 254.029,123.746 255.117 C 128.330 262.344,138.308 272.323,144.653 276.028 C 145.622 276.594,146.996 277.613,147.707 278.292 C 148.418 278.971,149.673 279.804,150.496 280.142 C 151.319 280.479,152.669 281.300,153.497 281.965 C 154.325 282.631,156.082 283.545,157.401 283.997 C 158.721 284.449,160.542 285.349,161.449 285.997 C 162.481 286.735,164.544 287.552,166.965 288.181 C 169.093 288.734,171.591 289.621,172.517 290.154 C 174.510 291.300,174.843 291.375,182.600 292.431 C 185.900 292.880,190.400 293.501,192.600 293.811 C 194.800 294.121,198.130 294.375,200.000 294.375 C 201.870 294.375,205.200 294.121,207.400 293.811 C 209.600 293.501,214.100 292.880,217.400 292.431 C 225.080 291.386,225.395 291.312,227.893 289.982 C 229.045 289.369,231.273 288.575,232.845 288.217 C 235.747 287.557,237.397 286.863,239.200 285.545 C 239.750 285.143,241.248 284.456,242.528 284.019 C 243.809 283.581,245.429 282.740,246.128 282.149 C 246.828 281.558,248.300 280.672,249.400 280.180 C 250.500 279.689,251.850 278.799,252.400 278.204 C 252.950 277.608,254.210 276.708,255.200 276.204 C 256.190 275.699,257.360 274.886,257.800 274.397 C 258.240 273.907,259.410 272.955,260.400 272.280 C 261.390 271.605,262.929 270.321,263.820 269.427 C 264.711 268.532,265.881 267.404,266.420 266.919 C 269.005 264.595,273.589 259.109,275.504 256.049 C 276.107 255.086,277.255 253.556,278.055 252.649 C 278.855 251.742,279.809 250.280,280.173 249.400 C 280.538 248.520,281.379 247.122,282.042 246.294 C 282.705 245.466,283.600 243.756,284.030 242.494 C 284.461 241.232,285.143 239.750,285.545 239.200 C 286.846 237.421,287.539 235.789,288.192 232.967 C 288.545 231.445,289.353 229.120,289.988 227.800 C 291.261 225.154,291.507 223.969,293.012 213.249 L 294.044 205.899 293.122 204.898 C 291.250 202.866,291.801 202.901,260.188 202.827 C 243.901 202.789,230.270 202.875,229.896 203.019 C 228.806 203.437,227.707 205.626,227.395 208.000 C 227.050 210.628,226.302 212.228,225.294 212.491 C 224.766 212.629,224.408 213.356,224.040 215.042 C 223.269 218.566,222.959 219.123,221.414 219.769 C 220.433 220.178,220.000 220.616,220.000 221.198 C 220.000 222.364,218.247 224.000,216.998 224.000 C 216.192 224.000,215.830 224.309,215.382 225.380 C 214.281 228.017,206.000 229.061,206.000 226.563 C 206.000 225.836,208.711 224.591,211.155 224.195 C 212.506 223.976,213.342 223.483,214.780 222.055 C 215.807 221.035,217.386 219.539,218.287 218.731 C 219.468 217.671,220.131 216.621,220.662 214.968 C 221.369 212.769,221.747 212.321,223.300 211.841 C 223.932 211.646,224.000 210.938,223.998 204.513 C 223.995 196.685,223.658 194.731,222.032 193.122 C 221.433 192.530,220.695 191.294,220.392 190.376 C 220.064 189.383,219.296 188.281,218.493 187.654 C 217.751 187.074,216.875 186.091,216.546 185.468 C 216.216 184.846,215.292 184.063,214.491 183.729 C 213.690 183.394,212.476 182.510,211.793 181.764 C 209.942 179.744,201.435 178.686,194.310 179.590 M208.160 181.238 C 209.018 181.476,210.300 182.285,211.008 183.035 C 211.715 183.786,212.589 184.400,212.948 184.400 C 214.152 184.400,218.723 189.388,219.576 191.633 C 220.009 192.772,220.838 194.422,221.419 195.300 C 223.759 198.836,223.738 207.548,221.383 210.348 C 220.862 210.966,220.071 212.448,219.625 213.642 C 218.839 215.741,217.842 216.887,212.760 221.526 C 207.246 226.560,192.404 225.924,185.927 220.377 C 181.827 216.865,181.381 216.329,180.417 213.753 C 179.947 212.499,179.138 210.966,178.617 210.348 C 176.150 207.415,176.212 198.781,178.728 194.983 C 179.437 193.913,180.232 192.310,180.496 191.419 C 181.072 189.476,185.200 185.145,187.321 184.259 C 188.100 183.933,189.036 183.211,189.401 182.655 C 190.721 180.639,202.730 179.732,208.160 181.238 M195.423 191.185 C 193.335 191.722,192.420 192.185,191.736 193.050 C 191.236 193.682,190.145 194.868,189.313 195.684 L 187.800 197.167 187.800 202.284 C 187.800 208.291,188.253 209.604,191.046 211.682 C 192.021 212.407,193.651 213.630,194.669 214.400 C 197.217 216.328,202.778 216.520,204.674 214.746 C 205.293 214.166,206.340 213.411,207.000 213.068 C 211.166 210.904,212.531 207.979,212.337 201.631 L 212.200 197.170 210.600 195.662 C 209.720 194.832,208.640 193.651,208.200 193.036 C 206.593 190.791,200.428 189.897,195.423 191.185 M206.253 193.125 C 206.629 193.336,207.221 194.101,207.568 194.826 C 207.916 195.551,208.740 196.440,209.400 196.802 C 210.724 197.527,211.624 202.212,211.039 205.332 C 210.676 207.268,207.546 210.975,205.626 211.743 C 204.783 212.080,203.731 212.816,203.289 213.378 C 202.197 214.766,197.509 214.926,196.800 213.599 C 196.564 213.159,195.523 212.368,194.486 211.841 C 190.143 209.634,188.353 205.720,189.073 200.005 C 189.361 197.717,189.530 197.348,190.504 196.882 C 191.111 196.591,191.968 195.646,192.409 194.783 C 193.178 193.275,193.455 193.110,196.000 192.639 C 197.632 192.337,205.512 192.711,206.253 193.125 M170.485 205.100 C 170.828 205.495,171.196 206.965,171.329 208.470 C 171.595 211.491,172.333 213.529,173.784 215.254 C 174.331 215.904,174.997 217.164,175.264 218.054 C 175.560 219.045,176.254 220.058,177.053 220.668 C 177.771 221.215,178.727 222.288,179.178 223.052 C 179.631 223.821,180.522 224.624,181.174 224.851 C 181.822 225.077,182.817 225.871,183.386 226.617 C 184.209 227.696,185.009 228.145,187.310 228.819 C 188.899 229.285,190.882 230.131,191.717 230.699 C 195.095 233.000,204.948 232.967,208.363 230.644 C 209.153 230.106,211.105 229.284,212.701 228.816 C 214.936 228.161,215.808 227.685,216.501 226.743 C 216.995 226.070,218.081 225.171,218.914 224.745 C 219.811 224.285,220.689 223.422,221.069 222.624 C 221.422 221.884,222.143 221.081,222.672 220.840 C 223.260 220.572,224.092 219.434,224.820 217.901 C 225.474 216.526,226.443 214.808,226.974 214.085 C 228.008 212.677,228.800 209.711,228.800 207.242 C 228.800 204.146,226.634 204.339,260.216 204.444 C 289.911 204.537,290.122 204.543,291.088 205.374 L 292.061 206.211 291.421 213.873 C 290.789 221.441,290.379 223.627,289.371 224.801 C 288.578 225.725,288.012 227.459,287.170 231.548 C 286.575 234.439,286.134 235.598,285.241 236.614 C 284.157 237.849,283.594 239.139,283.039 241.659 C 282.910 242.241,282.180 243.466,281.416 244.380 C 280.652 245.295,279.645 247.091,279.178 248.373 C 278.655 249.806,277.898 251.021,277.211 251.529 C 276.596 251.983,275.696 253.175,275.211 254.178 C 274.726 255.180,274.171 256.000,273.977 256.000 C 273.784 256.000,272.862 257.035,271.929 258.300 C 267.850 263.828,263.828 267.850,258.300 271.929 C 257.035 272.862,256.000 273.779,256.000 273.965 C 256.000 274.152,255.030 274.795,253.845 275.395 C 252.659 275.995,251.468 276.900,251.196 277.407 C 250.889 277.982,249.828 278.647,248.373 279.178 C 247.092 279.645,245.295 280.652,244.380 281.416 C 243.466 282.180,242.241 282.910,241.659 283.039 C 239.139 283.594,237.849 284.157,236.614 285.241 C 235.585 286.145,234.435 286.576,231.367 287.207 C 229.068 287.680,226.600 288.484,225.419 289.146 C 218.391 293.083,181.609 293.083,174.581 289.146 C 173.400 288.484,170.932 287.680,168.633 287.207 C 165.565 286.576,164.415 286.145,163.386 285.241 C 162.151 284.157,160.861 283.594,158.341 283.039 C 157.759 282.910,156.534 282.180,155.620 281.416 C 154.705 280.652,152.909 279.645,151.627 279.178 C 150.194 278.655,148.979 277.898,148.471 277.211 C 148.017 276.596,146.810 275.689,145.790 275.195 C 144.770 274.701,143.841 274.052,143.726 273.752 C 143.611 273.453,142.591 272.542,141.459 271.728 C 136.495 268.161,131.839 263.505,128.272 258.541 C 127.458 257.409,126.547 256.389,126.248 256.274 C 125.948 256.159,125.305 255.244,124.820 254.242 C 124.335 253.239,123.414 251.978,122.775 251.440 C 122.134 250.901,121.238 249.463,120.780 248.237 C 120.322 247.014,119.328 245.271,118.571 244.365 C 117.814 243.459,117.090 242.241,116.961 241.659 C 116.404 239.130,115.841 237.847,114.734 236.586 C 113.798 235.520,113.389 234.429,112.767 231.336 C 112.301 229.018,111.523 226.614,110.853 225.416 C 109.376 222.780,109.326 222.533,108.611 214.391 C 107.829 205.491,107.807 205.905,109.100 205.103 C 110.819 204.037,169.558 204.034,170.485 205.100 M281.083 209.658 C 280.698 209.873,280.488 210.218,280.615 210.425 C 280.983 211.020,282.400 210.860,282.400 210.224 C 282.400 209.413,281.902 209.199,281.083 209.658 M277.365 212.622 C 276.393 214.947,276.000 217.839,276.000 222.655 L 276.000 227.200 274.833 227.200 C 273.118 227.200,272.002 229.184,271.994 232.247 C 271.987 234.953,271.786 235.397,270.313 235.957 C 267.954 236.854,266.647 242.458,268.622 243.208 C 269.824 243.665,271.040 243.171,271.345 242.100 C 271.455 241.715,271.752 240.355,272.005 239.078 C 272.357 237.306,272.672 236.676,273.333 236.423 C 275.222 235.701,275.788 234.519,276.000 230.860 C 276.199 227.413,276.204 227.400,277.333 227.270 C 279.296 227.045,279.789 225.209,279.795 218.086 C 279.799 213.082,279.691 211.903,279.200 211.592 C 278.236 210.982,277.993 211.118,277.365 212.622 M120.622 213.734 C 118.466 215.311,120.335 227.021,122.836 227.607 C 123.732 227.817,123.814 228.056,124.002 231.016 C 124.230 234.616,124.769 235.877,126.241 236.246 C 127.383 236.533,127.759 237.299,128.183 240.200 C 128.508 242.428,128.932 243.118,130.294 243.636 C 130.803 243.829,131.319 244.306,131.439 244.694 C 132.087 246.782,132.895 248.029,133.957 248.578 C 134.609 248.915,135.263 249.570,135.410 250.033 C 135.750 251.102,144.653 260.300,145.657 260.618 C 146.071 260.749,146.672 261.366,146.993 261.987 C 147.327 262.632,148.361 263.497,149.400 264.000 C 150.472 264.519,151.472 265.366,151.830 266.058 C 152.489 267.333,153.362 267.813,155.718 268.196 C 156.828 268.377,157.334 268.701,157.602 269.405 C 158.024 270.515,160.651 271.987,162.284 272.028 C 163.938 272.070,164.781 272.508,165.331 273.612 C 166.497 275.951,175.800 277.045,175.800 274.843 C 175.800 273.272,174.161 272.395,170.783 272.158 C 166.553 271.862,166.018 271.701,165.596 270.589 C 165.108 269.305,163.170 268.146,160.956 267.814 C 159.578 267.608,159.071 267.311,158.625 266.448 C 158.102 265.438,156.823 264.672,153.890 263.613 C 153.279 263.392,152.667 262.894,152.529 262.506 C 152.121 261.358,151.102 260.370,149.735 259.798 C 149.030 259.504,148.159 258.695,147.800 258.000 C 147.428 257.280,146.565 256.494,145.794 256.172 C 144.919 255.806,144.197 255.092,143.751 254.154 C 143.329 253.264,142.582 252.501,141.823 252.184 C 141.010 251.844,140.346 251.129,139.896 250.109 C 139.445 249.087,138.740 248.329,137.842 247.901 C 136.886 247.445,136.395 246.889,136.212 246.056 C 135.912 244.688,134.315 242.800,133.458 242.800 C 132.800 242.800,132.000 240.821,132.000 239.194 C 132.000 237.843,130.725 236.168,129.454 235.849 C 128.367 235.576,128.013 234.627,128.005 231.959 C 127.999 229.768,126.690 227.551,125.196 227.200 C 124.211 226.969,124.197 226.908,123.967 221.583 C 123.653 214.332,122.739 212.187,120.622 213.734 M204.461 229.100 C 205.763 230.404,199.383 231.263,195.800 230.266 L 194.600 229.933 195.588 229.131 C 196.750 228.188,203.526 228.165,204.461 229.100 M265.600 245.600 C 265.600 246.380,266.024 246.642,266.506 246.161 C 266.826 245.840,266.407 244.800,265.957 244.800 C 265.761 244.800,265.600 245.160,265.600 245.600 M256.716 253.300 C 256.399 253.795,256.026 254.509,255.888 254.887 C 255.749 255.265,255.009 255.836,254.244 256.156 C 253.437 256.493,252.579 257.267,252.200 258.000 C 251.841 258.695,250.970 259.504,250.265 259.798 C 248.384 260.585,247.454 261.764,247.759 262.978 C 248.248 264.928,251.241 264.551,253.070 262.308 C 253.477 261.809,254.528 260.764,255.405 259.987 C 256.282 259.210,257.988 257.527,259.195 256.248 L 261.390 253.921 260.451 253.161 C 259.156 252.112,257.435 252.176,256.716 253.300 M245.378 265.635 C 245.231 265.874,245.302 266.262,245.538 266.498 C 246.037 266.997,247.336 266.143,246.972 265.555 C 246.668 265.062,245.702 265.111,245.378 265.635 M226.884 272.394 C 225.173 272.799,224.000 273.885,224.000 275.062 L 224.000 276.000 217.739 276.000 C 214.295 276.000,208.940 276.295,205.839 276.656 C 200.562 277.270,199.764 277.268,193.400 276.620 C 189.359 276.208,184.490 275.982,181.400 276.064 L 176.200 276.200 176.083 277.204 C 175.784 279.757,176.180 279.800,200.000 279.800 C 223.961 279.800,224.000 279.796,224.000 277.190 L 224.000 276.000 227.300 275.998 C 232.638 275.994,235.072 275.021,234.585 273.084 C 234.294 271.923,230.359 271.570,226.884 272.394 " stroke="none" fill="#a4968e" fill-rule="evenodd"></path></g></svg>